G75*
%MOIN*%
%OFA0B0*%
%FSLAX25Y25*%
%IPPOS*%
%LPD*%
%AMOC8*
5,1,8,0,0,1.08239X$1,22.5*
%
%ADD10C,0.00000*%
%ADD11C,0.05600*%
%ADD12C,0.05550*%
%ADD13C,0.07000*%
%ADD14R,0.04331X0.03937*%
%ADD15C,0.06400*%
%ADD16R,0.05906X0.05906*%
%ADD17R,0.03937X0.04331*%
%ADD18R,0.05800X0.01100*%
%ADD19R,0.01100X0.05800*%
%ADD20R,0.04362X0.04362*%
%ADD21C,0.01000*%
%ADD22C,0.01200*%
%ADD23C,0.01600*%
D10*
X0009280Y0005500D02*
X0009497Y0138078D01*
X0143930Y0137649D01*
X0143814Y0004635D01*
X0009280Y0005500D01*
D11*
X0016780Y0036563D03*
X0016780Y0044437D03*
X0122843Y0015500D03*
X0130717Y0015500D03*
D12*
X0107213Y0027193D03*
X0099339Y0027193D03*
X0091465Y0027193D03*
X0083591Y0027193D03*
X0075717Y0027193D03*
X0067843Y0027193D03*
X0059969Y0027193D03*
X0052094Y0027193D03*
X0044220Y0027193D03*
X0036346Y0027193D03*
X0036346Y0113807D03*
X0044220Y0113807D03*
X0052094Y0113807D03*
X0059969Y0113807D03*
X0067843Y0113807D03*
X0075717Y0113807D03*
X0083591Y0113807D03*
X0091465Y0113807D03*
X0099339Y0113807D03*
X0107213Y0113807D03*
D13*
X0016780Y0115500D03*
X0016780Y0105500D03*
X0016780Y0095500D03*
X0016780Y0125500D03*
X0021780Y0015500D03*
X0031780Y0015500D03*
X0041780Y0015500D03*
X0051780Y0015500D03*
X0066780Y0015500D03*
X0076780Y0015500D03*
X0086780Y0015500D03*
X0096780Y0015500D03*
D14*
X0116840Y0035645D03*
X0123532Y0035645D03*
X0129220Y0029464D03*
X0135913Y0029464D03*
X0100126Y0125500D03*
X0093433Y0125500D03*
X0085126Y0125500D03*
X0078433Y0125500D03*
X0070126Y0125500D03*
X0063433Y0125500D03*
X0055126Y0125500D03*
X0048433Y0125500D03*
D15*
X0114280Y0128000D03*
X0124280Y0128000D03*
X0134280Y0128000D03*
X0131780Y0080500D03*
X0131780Y0070500D03*
X0131780Y0060500D03*
X0121780Y0060500D03*
X0121780Y0070500D03*
X0121780Y0080500D03*
D16*
X0134629Y0051427D03*
X0134629Y0037648D03*
X0026780Y0118610D03*
X0026780Y0132390D03*
D17*
X0033433Y0125500D03*
X0040126Y0125500D03*
X0120933Y0045500D03*
X0127626Y0045500D03*
X0126780Y0092154D03*
X0126780Y0098846D03*
X0126780Y0107154D03*
X0126780Y0113846D03*
D18*
X0106780Y0094100D03*
X0106780Y0092200D03*
X0106780Y0090200D03*
X0106780Y0088200D03*
X0106780Y0086200D03*
X0106780Y0084300D03*
X0106780Y0082300D03*
X0106780Y0080300D03*
X0106780Y0078400D03*
X0106780Y0076400D03*
X0106780Y0074400D03*
X0106780Y0072500D03*
X0106780Y0070500D03*
X0106780Y0068500D03*
X0106780Y0066600D03*
X0106780Y0064600D03*
X0106780Y0062600D03*
X0106780Y0060700D03*
X0106780Y0058700D03*
X0106780Y0056700D03*
X0106780Y0054800D03*
X0106780Y0052800D03*
X0106780Y0050800D03*
X0106780Y0048800D03*
X0106780Y0046900D03*
X0046780Y0046900D03*
X0046780Y0048800D03*
X0046780Y0050800D03*
X0046780Y0052800D03*
X0046780Y0054800D03*
X0046780Y0056700D03*
X0046780Y0058700D03*
X0046780Y0060700D03*
X0046780Y0062600D03*
X0046780Y0064600D03*
X0046780Y0066600D03*
X0046780Y0068500D03*
X0046780Y0070500D03*
X0046780Y0072500D03*
X0046780Y0074400D03*
X0046780Y0076400D03*
X0046780Y0078400D03*
X0046780Y0080300D03*
X0046780Y0082300D03*
X0046780Y0084300D03*
X0046780Y0086200D03*
X0046780Y0088200D03*
X0046780Y0090200D03*
X0046780Y0092200D03*
X0046780Y0094100D03*
D19*
X0053180Y0100500D03*
X0055080Y0100500D03*
X0057080Y0100500D03*
X0059080Y0100500D03*
X0061080Y0100500D03*
X0062980Y0100500D03*
X0064980Y0100500D03*
X0066980Y0100500D03*
X0068880Y0100500D03*
X0070880Y0100500D03*
X0072880Y0100500D03*
X0074780Y0100500D03*
X0076780Y0100500D03*
X0078780Y0100500D03*
X0080680Y0100500D03*
X0082680Y0100500D03*
X0084680Y0100500D03*
X0086580Y0100500D03*
X0088580Y0100500D03*
X0090580Y0100500D03*
X0092480Y0100500D03*
X0094480Y0100500D03*
X0096480Y0100500D03*
X0098480Y0100500D03*
X0100380Y0100500D03*
X0100380Y0040500D03*
X0098480Y0040500D03*
X0096480Y0040500D03*
X0094480Y0040500D03*
X0092480Y0040500D03*
X0090580Y0040500D03*
X0088580Y0040500D03*
X0086580Y0040500D03*
X0084680Y0040500D03*
X0082680Y0040500D03*
X0080680Y0040500D03*
X0078780Y0040500D03*
X0076780Y0040500D03*
X0074780Y0040500D03*
X0072880Y0040500D03*
X0070880Y0040500D03*
X0068880Y0040500D03*
X0066980Y0040500D03*
X0064980Y0040500D03*
X0062980Y0040500D03*
X0061080Y0040500D03*
X0059080Y0040500D03*
X0057080Y0040500D03*
X0055080Y0040500D03*
X0053180Y0040500D03*
D20*
X0069280Y0060500D03*
X0076380Y0068010D03*
X0071780Y0080500D03*
X0070773Y0089254D03*
X0060981Y0091301D03*
X0052905Y0090249D03*
X0042206Y0102431D03*
X0035111Y0106273D03*
X0051028Y0107851D03*
X0056756Y0108121D03*
X0071144Y0119486D03*
X0079993Y0106929D03*
X0090968Y0091322D03*
X0090596Y0083533D03*
X0081780Y0085500D03*
X0099048Y0069934D03*
X0099126Y0062595D03*
X0110908Y0040167D03*
X0123260Y0052095D03*
X0122445Y0022198D03*
X0116780Y0090500D03*
X0117127Y0103417D03*
X0107066Y0121917D03*
X0038689Y0067241D03*
X0035300Y0072405D03*
X0034209Y0059832D03*
X0028110Y0059860D03*
X0021780Y0055500D03*
X0019880Y0068320D03*
D21*
X0020959Y0067241D01*
X0038689Y0067241D01*
X0039280Y0067831D01*
X0039280Y0070500D01*
X0043180Y0074400D01*
X0046780Y0074400D01*
X0046780Y0072500D02*
X0051230Y0072500D01*
X0053080Y0074350D01*
X0053080Y0090074D01*
X0052905Y0090249D01*
X0057121Y0092246D02*
X0057121Y0087272D01*
X0058538Y0085855D01*
X0058538Y0080036D01*
X0056620Y0078117D01*
X0056620Y0076403D01*
X0056659Y0076363D01*
X0056659Y0075380D01*
X0051780Y0070500D01*
X0046780Y0070500D01*
X0046775Y0076396D02*
X0046780Y0076400D01*
X0046775Y0076396D02*
X0032045Y0076396D01*
X0030469Y0074820D01*
X0030365Y0074820D01*
X0029685Y0075500D01*
X0021780Y0075500D01*
X0016780Y0080500D01*
X0016780Y0095500D01*
X0022999Y0102716D02*
X0022999Y0109280D01*
X0016780Y0115500D01*
X0023669Y0118610D02*
X0016780Y0125500D01*
X0023669Y0118610D02*
X0026780Y0118610D01*
X0026860Y0118530D01*
X0026860Y0112724D01*
X0033311Y0106273D01*
X0035111Y0106273D01*
X0041892Y0108533D02*
X0042206Y0108218D01*
X0042206Y0102431D01*
X0046439Y0100841D02*
X0046643Y0100841D01*
X0051679Y0095805D01*
X0053561Y0095805D01*
X0057121Y0092246D01*
X0060981Y0091301D02*
X0055080Y0097203D01*
X0055080Y0100500D01*
X0053180Y0100500D02*
X0053180Y0105700D01*
X0051028Y0107851D01*
X0046439Y0109957D02*
X0050288Y0113807D01*
X0052094Y0113807D01*
X0046439Y0109957D02*
X0046439Y0100841D01*
X0046780Y0092200D02*
X0033515Y0092200D01*
X0022999Y0102716D01*
X0016780Y0105500D02*
X0032080Y0090200D01*
X0046780Y0090200D01*
X0057080Y0100500D02*
X0057080Y0106984D01*
X0056756Y0108121D01*
X0060190Y0105215D02*
X0062298Y0105215D01*
X0064019Y0106937D01*
X0079985Y0106937D01*
X0079993Y0106929D01*
X0090580Y0104300D02*
X0090580Y0100500D01*
X0092480Y0100500D02*
X0092480Y0091322D01*
X0090968Y0091322D01*
X0094381Y0087909D01*
X0094381Y0078637D01*
X0088256Y0072512D01*
X0088256Y0066302D01*
X0102031Y0066302D01*
X0102043Y0066314D01*
X0102329Y0066600D01*
X0106780Y0066600D01*
X0113320Y0066600D01*
X0114190Y0065730D01*
X0114190Y0062740D01*
X0116741Y0060188D01*
X0121468Y0060188D01*
X0121780Y0060500D01*
X0123260Y0059020D01*
X0123260Y0052095D01*
X0120933Y0045500D02*
X0116024Y0045500D01*
X0114229Y0043706D01*
X0103645Y0043706D01*
X0101502Y0045849D01*
X0080711Y0045849D01*
X0078780Y0043918D01*
X0078780Y0040500D01*
X0075029Y0045526D02*
X0075335Y0045832D01*
X0075440Y0045832D01*
X0077961Y0048353D01*
X0077961Y0048353D01*
X0079327Y0049718D01*
X0079327Y0059381D01*
X0079432Y0059486D01*
X0079432Y0060431D01*
X0080377Y0061377D01*
X0091093Y0061377D01*
X0091874Y0062157D01*
X0098689Y0062157D01*
X0099126Y0062595D01*
X0102043Y0066314D02*
X0078076Y0066314D01*
X0076380Y0068010D01*
X0076780Y0067610D01*
X0076780Y0050500D01*
X0074285Y0048005D01*
X0063953Y0048005D01*
X0062980Y0047032D01*
X0062980Y0040500D01*
X0061080Y0040500D02*
X0061080Y0047965D01*
X0063497Y0050383D01*
X0072597Y0050383D01*
X0073468Y0051254D01*
X0073468Y0063502D01*
X0071980Y0064989D01*
X0072068Y0065077D01*
X0072068Y0071901D01*
X0073030Y0072863D01*
X0079855Y0072863D01*
X0081956Y0074963D01*
X0081956Y0078353D01*
X0084650Y0081048D01*
X0084650Y0081503D01*
X0086573Y0083426D01*
X0090489Y0083426D01*
X0090596Y0083533D01*
X0081780Y0085500D02*
X0076780Y0085500D01*
X0071780Y0080500D01*
X0070773Y0089254D02*
X0064355Y0095671D01*
X0061068Y0095671D01*
X0061076Y0095680D01*
X0061076Y0100497D01*
X0061080Y0100500D01*
X0059080Y0100500D02*
X0059080Y0104105D01*
X0060190Y0105215D01*
X0063455Y0119486D02*
X0063455Y0125478D01*
X0063433Y0125500D01*
X0067739Y0131339D02*
X0069757Y0129322D01*
X0071521Y0131086D01*
X0071521Y0131087D01*
X0071774Y0131339D01*
X0076059Y0131339D01*
X0078433Y0128965D01*
X0078433Y0125500D01*
X0078315Y0125618D01*
X0078315Y0129069D01*
X0081833Y0132588D01*
X0131610Y0132588D01*
X0134280Y0129918D01*
X0134280Y0128000D01*
X0134280Y0125314D01*
X0137374Y0122220D01*
X0137374Y0061139D01*
X0137374Y0054172D01*
X0134629Y0051427D01*
X0137298Y0051427D01*
X0139134Y0049592D01*
X0139134Y0032684D01*
X0135913Y0029464D01*
X0135913Y0020697D01*
X0135126Y0019909D01*
X0129220Y0021878D02*
X0128433Y0021091D01*
X0129220Y0021878D02*
X0129220Y0029464D01*
X0123532Y0023286D02*
X0123532Y0035645D01*
X0127588Y0039269D02*
X0127588Y0045462D01*
X0127626Y0045500D01*
X0127588Y0039269D02*
X0129209Y0037648D01*
X0134629Y0037648D01*
X0123532Y0023286D02*
X0122445Y0022198D01*
X0116840Y0021503D02*
X0122843Y0015500D01*
X0116622Y0015500D01*
X0109507Y0008385D01*
X0109507Y0007856D01*
X0108711Y0008652D01*
X0068864Y0008652D01*
X0066780Y0010737D01*
X0066780Y0015500D01*
X0066780Y0010500D01*
X0064806Y0008526D01*
X0023877Y0008526D01*
X0021780Y0010624D01*
X0021780Y0015500D01*
X0028665Y0023027D02*
X0029294Y0023027D01*
X0030807Y0021514D01*
X0032318Y0021514D01*
X0033831Y0020000D01*
X0037279Y0020000D01*
X0041780Y0015500D01*
X0034213Y0010544D02*
X0034086Y0010418D01*
X0031780Y0012724D01*
X0031780Y0015500D01*
X0016780Y0030500D01*
X0016780Y0036563D01*
X0016780Y0044437D02*
X0016780Y0062201D01*
X0018332Y0063754D01*
X0036729Y0063754D01*
X0039881Y0060602D01*
X0046681Y0060602D01*
X0046780Y0060700D01*
X0046780Y0058700D02*
X0035342Y0058700D01*
X0034209Y0059832D01*
X0032480Y0054800D02*
X0028110Y0059169D01*
X0028110Y0059860D01*
X0032480Y0054800D02*
X0046780Y0054800D01*
X0046780Y0052800D02*
X0024480Y0052800D01*
X0021780Y0055500D01*
X0032780Y0072405D02*
X0030365Y0074820D01*
X0032780Y0072405D02*
X0035300Y0072405D01*
X0046780Y0056700D02*
X0065480Y0056700D01*
X0069280Y0060500D01*
X0064980Y0045526D02*
X0075029Y0045526D01*
X0064980Y0045526D02*
X0064980Y0040500D01*
X0059787Y0021465D02*
X0057371Y0019049D01*
X0057371Y0013286D01*
X0054629Y0010544D01*
X0034213Y0010544D01*
X0034786Y0021947D02*
X0049919Y0021947D01*
X0051319Y0020547D01*
X0051319Y0015961D01*
X0051780Y0015500D01*
X0059787Y0021465D02*
X0074600Y0021465D01*
X0076780Y0019285D01*
X0076780Y0015500D01*
X0086780Y0015500D02*
X0086780Y0018822D01*
X0090352Y0022395D01*
X0109567Y0022395D01*
X0111892Y0024721D01*
X0111892Y0028607D01*
X0111052Y0029447D01*
X0111052Y0030602D01*
X0108741Y0032913D01*
X0093029Y0032913D01*
X0090706Y0035236D01*
X0090706Y0037156D01*
X0090590Y0037271D01*
X0090590Y0040489D01*
X0090580Y0040500D01*
X0092480Y0040500D02*
X0092543Y0040436D01*
X0092543Y0036298D01*
X0093111Y0035731D01*
X0111575Y0035731D01*
X0112629Y0034677D01*
X0112629Y0031472D01*
X0114273Y0029828D01*
X0114273Y0022993D01*
X0106780Y0015500D01*
X0096780Y0015500D01*
X0086335Y0031653D02*
X0034456Y0031653D01*
X0032464Y0029661D01*
X0032464Y0029646D01*
X0031152Y0028334D01*
X0031152Y0023831D01*
X0031287Y0023697D01*
X0033036Y0023697D01*
X0034786Y0021947D01*
X0028665Y0023027D02*
X0028413Y0023279D01*
X0028413Y0028575D01*
X0033595Y0033757D01*
X0084910Y0033757D01*
X0085435Y0034282D01*
X0085959Y0034282D01*
X0086580Y0034902D01*
X0086580Y0040500D01*
X0088580Y0040500D02*
X0088580Y0033897D01*
X0086335Y0031653D01*
X0110908Y0040167D02*
X0112317Y0040167D01*
X0116840Y0035645D01*
X0116840Y0021503D01*
X0137407Y0061106D02*
X0137374Y0061139D01*
X0120004Y0078724D02*
X0121780Y0080500D01*
X0120004Y0078724D02*
X0116781Y0078724D01*
X0113981Y0075924D01*
X0113981Y0069189D01*
X0113292Y0068500D01*
X0106780Y0068500D01*
X0100482Y0068500D01*
X0099048Y0069934D01*
X0116780Y0090500D02*
X0125126Y0090500D01*
X0126780Y0092154D01*
X0126780Y0098846D02*
X0122209Y0103417D01*
X0117127Y0103417D01*
X0126780Y0107154D02*
X0126780Y0098846D01*
X0126780Y0113846D02*
X0131817Y0113846D01*
X0134393Y0116423D01*
X0134393Y0127886D01*
X0134280Y0128000D01*
X0124974Y0117305D02*
X0126780Y0115500D01*
X0126780Y0113846D01*
X0124974Y0117305D02*
X0110198Y0117305D01*
X0107213Y0114319D01*
X0107213Y0113807D01*
X0107174Y0113768D01*
X0107174Y0108734D01*
X0103940Y0105500D01*
X0091780Y0105500D01*
X0090580Y0104300D01*
X0095725Y0119192D02*
X0093605Y0121311D01*
X0093605Y0125328D01*
X0093433Y0125500D01*
X0093792Y0125859D01*
X0093792Y0128596D01*
X0091889Y0130500D01*
X0086780Y0130500D01*
X0085126Y0128846D01*
X0085126Y0125500D01*
X0095725Y0119192D02*
X0103436Y0119192D01*
X0106161Y0121917D01*
X0107066Y0121917D01*
X0100126Y0125500D02*
X0100126Y0128735D01*
X0100933Y0129542D01*
X0112738Y0129542D01*
X0114280Y0128000D01*
X0071144Y0119486D02*
X0063455Y0119486D01*
X0069757Y0125869D02*
X0070126Y0125500D01*
X0069757Y0125869D02*
X0069757Y0129322D01*
X0067739Y0131339D02*
X0058666Y0131339D01*
X0056780Y0129453D01*
X0056780Y0125500D01*
X0055126Y0125500D01*
X0048433Y0125500D02*
X0040126Y0125500D01*
X0039599Y0124973D01*
X0039599Y0120892D01*
X0036346Y0117640D01*
X0036346Y0113807D01*
X0041892Y0108533D02*
X0042839Y0109481D01*
X0042839Y0112426D01*
X0044220Y0113807D01*
X0033433Y0125500D02*
X0033433Y0129737D01*
X0031410Y0131760D01*
X0027409Y0131760D01*
X0026780Y0132390D01*
X0053080Y0074350D02*
X0053080Y0074350D01*
D22*
X0122843Y0015500D02*
X0128433Y0021091D01*
X0130717Y0015500D02*
X0135126Y0019909D01*
D23*
X0134225Y0018497D02*
X0133713Y0019009D01*
X0133127Y0019434D01*
X0132482Y0019763D01*
X0131794Y0019987D01*
X0131079Y0020100D01*
X0130978Y0020100D01*
X0131340Y0020462D01*
X0131720Y0021380D01*
X0131720Y0025495D01*
X0132214Y0025495D01*
X0132726Y0026007D01*
X0133053Y0025818D01*
X0133511Y0025695D01*
X0135729Y0025695D01*
X0135729Y0029279D01*
X0136097Y0029279D01*
X0136097Y0025695D01*
X0138316Y0025695D01*
X0138773Y0025818D01*
X0139184Y0026055D01*
X0139519Y0026390D01*
X0139756Y0026800D01*
X0139879Y0027258D01*
X0139879Y0029279D01*
X0136098Y0029279D01*
X0136098Y0029648D01*
X0139879Y0029648D01*
X0139879Y0031669D01*
X0139756Y0032127D01*
X0139519Y0032537D01*
X0139184Y0032872D01*
X0138806Y0033091D01*
X0139582Y0033867D01*
X0139582Y0041429D01*
X0138411Y0042601D01*
X0131594Y0042601D01*
X0131594Y0046675D01*
X0133953Y0046675D01*
X0133953Y0050751D01*
X0135306Y0050751D01*
X0135306Y0052104D01*
X0139382Y0052104D01*
X0139382Y0054617D01*
X0139259Y0055075D01*
X0139023Y0055485D01*
X0138687Y0055821D01*
X0138277Y0056058D01*
X0137819Y0056180D01*
X0135306Y0056180D01*
X0135306Y0052104D01*
X0133953Y0052104D01*
X0133953Y0055772D01*
X0134725Y0056092D01*
X0136188Y0057554D01*
X0136980Y0059466D01*
X0136980Y0061534D01*
X0136188Y0063446D01*
X0134725Y0064908D01*
X0133297Y0065500D01*
X0134725Y0066092D01*
X0136188Y0067554D01*
X0136980Y0069466D01*
X0136980Y0071534D01*
X0136188Y0073446D01*
X0134725Y0074908D01*
X0133297Y0075500D01*
X0134725Y0076092D01*
X0136188Y0077554D01*
X0136980Y0079466D01*
X0136980Y0081534D01*
X0136188Y0083446D01*
X0134725Y0084908D01*
X0132814Y0085700D01*
X0130745Y0085700D01*
X0128834Y0084908D01*
X0127371Y0083446D01*
X0126647Y0081698D01*
X0126413Y0082419D01*
X0126056Y0083121D01*
X0125593Y0083757D01*
X0125037Y0084314D01*
X0124400Y0084776D01*
X0123699Y0085134D01*
X0122950Y0085377D01*
X0122173Y0085500D01*
X0121865Y0085500D01*
X0121865Y0080586D01*
X0121694Y0080586D01*
X0121694Y0085500D01*
X0121386Y0085500D01*
X0120609Y0085377D01*
X0119860Y0085134D01*
X0119159Y0084776D01*
X0118522Y0084314D01*
X0117966Y0083757D01*
X0117503Y0083121D01*
X0117146Y0082419D01*
X0116903Y0081671D01*
X0116780Y0080894D01*
X0116780Y0080586D01*
X0121694Y0080586D01*
X0121694Y0080414D01*
X0116780Y0080414D01*
X0116780Y0080106D01*
X0116903Y0079329D01*
X0117146Y0078581D01*
X0117503Y0077879D01*
X0117966Y0077243D01*
X0118522Y0076686D01*
X0119159Y0076224D01*
X0119860Y0075866D01*
X0120581Y0075632D01*
X0118834Y0074908D01*
X0117371Y0073446D01*
X0116580Y0071534D01*
X0116580Y0069466D01*
X0117371Y0067554D01*
X0118834Y0066092D01*
X0120262Y0065500D01*
X0118834Y0064908D01*
X0117371Y0063446D01*
X0117268Y0063197D01*
X0116690Y0063775D01*
X0116690Y0066228D01*
X0116309Y0067146D01*
X0115606Y0067850D01*
X0114736Y0068719D01*
X0113817Y0069100D01*
X0111658Y0069100D01*
X0111680Y0069122D01*
X0111680Y0095478D01*
X0110508Y0096650D01*
X0103051Y0096650D01*
X0101880Y0095478D01*
X0101880Y0069122D01*
X0101901Y0069100D01*
X0101832Y0069100D01*
X0101141Y0068814D01*
X0090756Y0068814D01*
X0090756Y0071476D01*
X0095797Y0076517D01*
X0096500Y0077221D01*
X0096881Y0078140D01*
X0096881Y0088407D01*
X0096500Y0089326D01*
X0095149Y0090676D01*
X0095149Y0094332D01*
X0094980Y0094501D01*
X0094980Y0095600D01*
X0101758Y0095600D01*
X0102930Y0096772D01*
X0102930Y0104228D01*
X0101758Y0105400D01*
X0091101Y0105400D01*
X0090901Y0105200D01*
X0090580Y0105200D01*
X0090580Y0104878D01*
X0090579Y0104878D01*
X0090579Y0105200D01*
X0090158Y0105200D01*
X0089958Y0105400D01*
X0084174Y0105400D01*
X0084174Y0109032D01*
X0084540Y0109032D01*
X0086295Y0109759D01*
X0087528Y0110992D01*
X0088760Y0109759D01*
X0090515Y0109032D01*
X0092414Y0109032D01*
X0094169Y0109759D01*
X0095402Y0110992D01*
X0096634Y0109759D01*
X0098389Y0109032D01*
X0100288Y0109032D01*
X0102043Y0109759D01*
X0103386Y0111102D01*
X0103436Y0111222D01*
X0103723Y0110827D01*
X0104232Y0110318D01*
X0104815Y0109894D01*
X0105456Y0109567D01*
X0106141Y0109345D01*
X0106853Y0109232D01*
X0107213Y0109232D01*
X0107573Y0109232D01*
X0108284Y0109345D01*
X0108969Y0109567D01*
X0109610Y0109894D01*
X0110193Y0110318D01*
X0110702Y0110827D01*
X0111125Y0111409D01*
X0111452Y0112051D01*
X0111675Y0112736D01*
X0111787Y0113447D01*
X0111787Y0113807D01*
X0107213Y0113807D01*
X0107213Y0113807D01*
X0111787Y0113807D01*
X0111787Y0114167D01*
X0111675Y0114878D01*
X0111452Y0115563D01*
X0111125Y0116205D01*
X0110702Y0116787D01*
X0110193Y0117297D01*
X0109610Y0117720D01*
X0109579Y0117736D01*
X0110076Y0117736D01*
X0111247Y0118907D01*
X0111247Y0123678D01*
X0111334Y0123592D01*
X0113245Y0122800D01*
X0115314Y0122800D01*
X0117225Y0123592D01*
X0118688Y0125054D01*
X0119280Y0126483D01*
X0119871Y0125054D01*
X0121334Y0123592D01*
X0123245Y0122800D01*
X0125314Y0122800D01*
X0127225Y0123592D01*
X0128688Y0125054D01*
X0129412Y0126802D01*
X0129646Y0126081D01*
X0130003Y0125379D01*
X0130466Y0124743D01*
X0131022Y0124186D01*
X0131659Y0123724D01*
X0132360Y0123366D01*
X0133109Y0123123D01*
X0133886Y0123000D01*
X0134080Y0123000D01*
X0134080Y0127800D01*
X0134480Y0127800D01*
X0134480Y0128200D01*
X0139280Y0128200D01*
X0139280Y0128394D01*
X0139156Y0129171D01*
X0138913Y0129919D01*
X0138556Y0130621D01*
X0138093Y0131257D01*
X0137537Y0131814D01*
X0136900Y0132276D01*
X0136199Y0132634D01*
X0135450Y0132877D01*
X0134673Y0133000D01*
X0134480Y0133000D01*
X0134480Y0128200D01*
X0134080Y0128200D01*
X0134080Y0133000D01*
X0133886Y0133000D01*
X0133109Y0132877D01*
X0132360Y0132634D01*
X0131659Y0132276D01*
X0131022Y0131814D01*
X0130466Y0131257D01*
X0130003Y0130621D01*
X0129646Y0129919D01*
X0129412Y0129198D01*
X0128688Y0130946D01*
X0127225Y0132408D01*
X0125314Y0133200D01*
X0123245Y0133200D01*
X0121334Y0132408D01*
X0119871Y0130946D01*
X0119280Y0129517D01*
X0118688Y0130946D01*
X0117225Y0132408D01*
X0115314Y0133200D01*
X0113245Y0133200D01*
X0111334Y0132408D01*
X0110967Y0132042D01*
X0100436Y0132042D01*
X0099517Y0131661D01*
X0098814Y0130958D01*
X0098007Y0130151D01*
X0097724Y0129468D01*
X0097132Y0129468D01*
X0096780Y0129116D01*
X0096427Y0129468D01*
X0096137Y0129468D01*
X0095912Y0130012D01*
X0095208Y0130716D01*
X0093305Y0132619D01*
X0092386Y0133000D01*
X0086282Y0133000D01*
X0085363Y0132619D01*
X0084660Y0131916D01*
X0083007Y0130263D01*
X0082678Y0129468D01*
X0082132Y0129468D01*
X0081621Y0128957D01*
X0081293Y0129146D01*
X0080835Y0129268D01*
X0078617Y0129268D01*
X0078617Y0125684D01*
X0078249Y0125684D01*
X0078249Y0125316D01*
X0074468Y0125316D01*
X0074468Y0123353D01*
X0074153Y0123668D01*
X0074091Y0123668D01*
X0074091Y0125316D01*
X0070310Y0125316D01*
X0070310Y0125684D01*
X0069942Y0125684D01*
X0069942Y0129268D01*
X0067724Y0129268D01*
X0067266Y0129146D01*
X0066938Y0128957D01*
X0066427Y0129468D01*
X0060439Y0129468D01*
X0059268Y0128297D01*
X0059268Y0122703D01*
X0060439Y0121531D01*
X0060955Y0121531D01*
X0060955Y0118989D01*
X0061167Y0118479D01*
X0060918Y0118582D01*
X0059019Y0118582D01*
X0057264Y0117855D01*
X0056031Y0116623D01*
X0054799Y0117855D01*
X0053044Y0118582D01*
X0051145Y0118582D01*
X0049390Y0117855D01*
X0048157Y0116623D01*
X0046925Y0117855D01*
X0045170Y0118582D01*
X0043271Y0118582D01*
X0041516Y0117855D01*
X0040283Y0116623D01*
X0039574Y0117332D01*
X0041015Y0118772D01*
X0041718Y0119476D01*
X0042099Y0120394D01*
X0042099Y0121335D01*
X0042923Y0121335D01*
X0044094Y0122506D01*
X0044094Y0123000D01*
X0044268Y0123000D01*
X0044268Y0122703D01*
X0045439Y0121531D01*
X0051427Y0121531D01*
X0051938Y0122043D01*
X0052266Y0121854D01*
X0052724Y0121731D01*
X0054942Y0121731D01*
X0054942Y0125316D01*
X0055310Y0125316D01*
X0055310Y0125684D01*
X0054942Y0125684D01*
X0054942Y0129268D01*
X0052724Y0129268D01*
X0052266Y0129146D01*
X0051938Y0128957D01*
X0051427Y0129468D01*
X0045439Y0129468D01*
X0044268Y0128297D01*
X0044268Y0128000D01*
X0044094Y0128000D01*
X0044094Y0128494D01*
X0042923Y0129665D01*
X0037329Y0129665D01*
X0036780Y0129116D01*
X0036230Y0129665D01*
X0035933Y0129665D01*
X0035933Y0130234D01*
X0035552Y0131153D01*
X0033529Y0133177D01*
X0032826Y0133880D01*
X0031907Y0134260D01*
X0031732Y0134260D01*
X0031732Y0135500D01*
X0141780Y0135500D01*
X0141780Y0006648D01*
X0111793Y0006841D01*
X0112000Y0007342D01*
X0117658Y0013000D01*
X0118683Y0013000D01*
X0118773Y0012781D01*
X0120124Y0011431D01*
X0121888Y0010700D01*
X0123797Y0010700D01*
X0125561Y0011431D01*
X0126912Y0012781D01*
X0126946Y0012864D01*
X0127208Y0012503D01*
X0127720Y0011991D01*
X0128306Y0011566D01*
X0128951Y0011237D01*
X0129639Y0011013D01*
X0130354Y0010900D01*
X0130716Y0010900D01*
X0130716Y0015500D01*
X0130717Y0015500D01*
X0135317Y0015500D01*
X0135317Y0015862D01*
X0135203Y0016577D01*
X0134980Y0017266D01*
X0134651Y0017911D01*
X0134225Y0018497D01*
X0134377Y0018288D02*
X0141780Y0018288D01*
X0141780Y0016690D02*
X0135167Y0016690D01*
X0135317Y0015500D02*
X0135317Y0015138D01*
X0135203Y0014423D01*
X0134980Y0013734D01*
X0134651Y0013089D01*
X0134225Y0012503D01*
X0133713Y0011991D01*
X0133127Y0011566D01*
X0132482Y0011237D01*
X0131794Y0011013D01*
X0131079Y0010900D01*
X0130717Y0010900D01*
X0130717Y0015500D01*
X0130717Y0015500D01*
X0135317Y0015500D01*
X0135309Y0015091D02*
X0141780Y0015091D01*
X0141780Y0013493D02*
X0134856Y0013493D01*
X0133579Y0011894D02*
X0141780Y0011894D01*
X0141780Y0010296D02*
X0114953Y0010296D01*
X0116552Y0011894D02*
X0119660Y0011894D01*
X0126025Y0011894D02*
X0127854Y0011894D01*
X0130716Y0011894D02*
X0130717Y0011894D01*
X0130716Y0013493D02*
X0130717Y0013493D01*
X0130716Y0015091D02*
X0130717Y0015091D01*
X0132102Y0019887D02*
X0141780Y0019887D01*
X0141780Y0021485D02*
X0131720Y0021485D01*
X0131720Y0023084D02*
X0141780Y0023084D01*
X0141780Y0024682D02*
X0131720Y0024682D01*
X0135729Y0026281D02*
X0136097Y0026281D01*
X0136097Y0027879D02*
X0135729Y0027879D01*
X0136098Y0029478D02*
X0141780Y0029478D01*
X0141780Y0031076D02*
X0139879Y0031076D01*
X0139382Y0032675D02*
X0141780Y0032675D01*
X0141780Y0034273D02*
X0139582Y0034273D01*
X0139582Y0035872D02*
X0141780Y0035872D01*
X0141780Y0037470D02*
X0139582Y0037470D01*
X0139582Y0039069D02*
X0141780Y0039069D01*
X0141780Y0040667D02*
X0139582Y0040667D01*
X0138745Y0042266D02*
X0141780Y0042266D01*
X0141780Y0043864D02*
X0131594Y0043864D01*
X0131594Y0045463D02*
X0141780Y0045463D01*
X0141780Y0047061D02*
X0138714Y0047061D01*
X0138687Y0047034D02*
X0139023Y0047369D01*
X0139259Y0047780D01*
X0139382Y0048238D01*
X0139382Y0050751D01*
X0135306Y0050751D01*
X0135306Y0046675D01*
X0137819Y0046675D01*
X0138277Y0046797D01*
X0138687Y0047034D01*
X0139382Y0048660D02*
X0141780Y0048660D01*
X0141780Y0050258D02*
X0139382Y0050258D01*
X0141780Y0051857D02*
X0135306Y0051857D01*
X0133953Y0051857D02*
X0127441Y0051857D01*
X0127441Y0053455D02*
X0129877Y0053455D01*
X0129877Y0054617D02*
X0129877Y0052104D01*
X0133953Y0052104D01*
X0133953Y0050751D01*
X0129877Y0050751D01*
X0129877Y0049665D01*
X0127441Y0049665D01*
X0127441Y0055104D01*
X0126269Y0056276D01*
X0125760Y0056276D01*
X0125760Y0057126D01*
X0126188Y0057554D01*
X0126780Y0058983D01*
X0127371Y0057554D01*
X0128834Y0056092D01*
X0130254Y0055503D01*
X0130236Y0055485D01*
X0129999Y0055075D01*
X0129877Y0054617D01*
X0129994Y0055054D02*
X0127441Y0055054D01*
X0128273Y0056652D02*
X0125760Y0056652D01*
X0126476Y0058251D02*
X0127083Y0058251D01*
X0133953Y0055054D02*
X0135306Y0055054D01*
X0135306Y0053455D02*
X0133953Y0053455D01*
X0133953Y0050258D02*
X0135306Y0050258D01*
X0135306Y0048660D02*
X0133953Y0048660D01*
X0133953Y0047061D02*
X0135306Y0047061D01*
X0129877Y0050258D02*
X0127441Y0050258D01*
X0124280Y0041884D02*
X0124829Y0041335D01*
X0125088Y0041335D01*
X0125088Y0039413D01*
X0123717Y0039413D01*
X0123717Y0035829D01*
X0127492Y0035829D01*
X0127793Y0035529D01*
X0128712Y0035148D01*
X0129677Y0035148D01*
X0129677Y0033867D01*
X0130111Y0033432D01*
X0127496Y0033432D01*
X0127498Y0033439D01*
X0127498Y0035460D01*
X0123717Y0035460D01*
X0123717Y0031876D01*
X0125055Y0031876D01*
X0125055Y0026667D01*
X0126227Y0025495D01*
X0126720Y0025495D01*
X0126720Y0023055D01*
X0123916Y0020251D01*
X0123797Y0020300D01*
X0121888Y0020300D01*
X0121669Y0020209D01*
X0119340Y0022538D01*
X0119340Y0031676D01*
X0119833Y0031676D01*
X0120345Y0032188D01*
X0120672Y0031999D01*
X0121130Y0031876D01*
X0123348Y0031876D01*
X0123348Y0035460D01*
X0123717Y0035460D01*
X0123717Y0035829D01*
X0123348Y0035829D01*
X0123348Y0039413D01*
X0121130Y0039413D01*
X0120672Y0039290D01*
X0120345Y0039101D01*
X0119833Y0039613D01*
X0116407Y0039613D01*
X0115089Y0040931D01*
X0115089Y0041356D01*
X0115646Y0041586D01*
X0116349Y0042290D01*
X0116965Y0042905D01*
X0116965Y0042506D01*
X0118136Y0041335D01*
X0123730Y0041335D01*
X0124280Y0041884D01*
X0125088Y0040667D02*
X0115352Y0040667D01*
X0116325Y0042266D02*
X0117205Y0042266D01*
X0123348Y0039069D02*
X0123717Y0039069D01*
X0123717Y0037470D02*
X0123348Y0037470D01*
X0123348Y0035872D02*
X0123717Y0035872D01*
X0123717Y0034273D02*
X0123348Y0034273D01*
X0123348Y0032675D02*
X0123717Y0032675D01*
X0125055Y0031076D02*
X0119340Y0031076D01*
X0119340Y0029478D02*
X0125055Y0029478D01*
X0125055Y0027879D02*
X0119340Y0027879D01*
X0119340Y0026281D02*
X0125441Y0026281D01*
X0126720Y0024682D02*
X0119340Y0024682D01*
X0119340Y0023084D02*
X0126720Y0023084D01*
X0125151Y0021485D02*
X0120393Y0021485D01*
X0127498Y0034273D02*
X0129677Y0034273D01*
X0139410Y0026281D02*
X0141780Y0026281D01*
X0141780Y0027879D02*
X0139879Y0027879D01*
X0141780Y0008697D02*
X0113355Y0008697D01*
X0111899Y0007099D02*
X0141780Y0007099D01*
X0101880Y0048349D02*
X0080213Y0048349D01*
X0079294Y0047969D01*
X0077363Y0046038D01*
X0076726Y0045400D01*
X0075401Y0045400D01*
X0065601Y0045400D01*
X0065480Y0045278D01*
X0065480Y0045505D01*
X0074782Y0045505D01*
X0075701Y0045886D01*
X0078196Y0048381D01*
X0078899Y0049084D01*
X0079280Y0050003D01*
X0079280Y0063814D01*
X0087729Y0063814D01*
X0087758Y0063802D01*
X0101880Y0063802D01*
X0101880Y0048349D01*
X0101880Y0048660D02*
X0078475Y0048660D01*
X0078196Y0048381D02*
X0078196Y0048381D01*
X0078387Y0047061D02*
X0076876Y0047061D01*
X0076789Y0045463D02*
X0065480Y0045463D01*
X0059837Y0050258D02*
X0051680Y0050258D01*
X0051680Y0048660D02*
X0058661Y0048660D01*
X0058580Y0048463D02*
X0058580Y0047468D01*
X0058580Y0045400D01*
X0051801Y0045400D01*
X0050630Y0044228D01*
X0050630Y0036772D01*
X0051144Y0036257D01*
X0033098Y0036257D01*
X0032179Y0035877D01*
X0026997Y0030694D01*
X0026293Y0029991D01*
X0025913Y0029072D01*
X0025913Y0022781D01*
X0026293Y0021863D01*
X0026545Y0021611D01*
X0027249Y0020907D01*
X0028167Y0020527D01*
X0028258Y0020527D01*
X0028688Y0020097D01*
X0028857Y0019928D01*
X0028327Y0019543D01*
X0027737Y0018953D01*
X0027247Y0018278D01*
X0026880Y0017558D01*
X0026442Y0018615D01*
X0024895Y0020163D01*
X0022874Y0021000D01*
X0020685Y0021000D01*
X0018664Y0020163D01*
X0017117Y0018615D01*
X0016280Y0016594D01*
X0016280Y0016000D01*
X0011780Y0020500D01*
X0011780Y0093199D01*
X0012117Y0092384D01*
X0013664Y0090837D01*
X0014280Y0090582D01*
X0014280Y0080003D01*
X0014660Y0079084D01*
X0019660Y0074084D01*
X0020363Y0073381D01*
X0021282Y0073000D01*
X0028650Y0073000D01*
X0028948Y0072701D01*
X0028948Y0072701D01*
X0031119Y0070531D01*
X0031119Y0069395D01*
X0032290Y0068224D01*
X0038309Y0068224D01*
X0039481Y0069395D01*
X0039481Y0073896D01*
X0041897Y0073896D01*
X0041880Y0073878D01*
X0041880Y0063102D01*
X0040916Y0063102D01*
X0038145Y0065874D01*
X0037226Y0066254D01*
X0017835Y0066254D01*
X0016916Y0065874D01*
X0016213Y0065170D01*
X0014660Y0063618D01*
X0014280Y0062699D01*
X0014280Y0048597D01*
X0014061Y0048506D01*
X0012710Y0047156D01*
X0011980Y0045392D01*
X0011980Y0043482D01*
X0012710Y0041718D01*
X0014061Y0040368D01*
X0014143Y0040334D01*
X0013783Y0040072D01*
X0013271Y0039560D01*
X0012845Y0038974D01*
X0012517Y0038329D01*
X0012293Y0037640D01*
X0012180Y0036925D01*
X0012180Y0036563D01*
X0012180Y0036201D01*
X0012293Y0035486D01*
X0012517Y0034797D01*
X0012845Y0034152D01*
X0013271Y0033566D01*
X0013783Y0033054D01*
X0014369Y0032629D01*
X0015014Y0032300D01*
X0015702Y0032076D01*
X0016417Y0031963D01*
X0016779Y0031963D01*
X0016779Y0036563D01*
X0012180Y0036563D01*
X0016779Y0036563D01*
X0016779Y0036563D01*
X0016780Y0036563D01*
X0021380Y0036563D01*
X0021380Y0036925D01*
X0021266Y0037640D01*
X0021043Y0038329D01*
X0020714Y0038974D01*
X0020288Y0039560D01*
X0019776Y0040072D01*
X0019416Y0040334D01*
X0019498Y0040368D01*
X0020849Y0041718D01*
X0021580Y0043482D01*
X0021580Y0045392D01*
X0020849Y0047156D01*
X0019498Y0048506D01*
X0019280Y0048597D01*
X0019280Y0051319D01*
X0022425Y0051319D01*
X0023063Y0050681D01*
X0023982Y0050300D01*
X0041880Y0050300D01*
X0041880Y0045522D01*
X0043051Y0044350D01*
X0050508Y0044350D01*
X0051680Y0045522D01*
X0051680Y0054200D01*
X0065977Y0054200D01*
X0066896Y0054581D01*
X0068634Y0056319D01*
X0070968Y0056319D01*
X0070968Y0052883D01*
X0063000Y0052883D01*
X0062081Y0052503D01*
X0061378Y0051799D01*
X0058960Y0049382D01*
X0058580Y0048463D01*
X0058580Y0047061D02*
X0051680Y0047061D01*
X0051621Y0045463D02*
X0058580Y0045463D01*
X0061435Y0051857D02*
X0051680Y0051857D01*
X0051680Y0053455D02*
X0070968Y0053455D01*
X0070968Y0055054D02*
X0067369Y0055054D01*
X0064444Y0059200D02*
X0051680Y0059200D01*
X0051680Y0068000D01*
X0052277Y0068000D01*
X0053196Y0068381D01*
X0058075Y0073260D01*
X0058779Y0073964D01*
X0059159Y0074882D01*
X0059159Y0076861D01*
X0059120Y0076956D01*
X0059120Y0077082D01*
X0059954Y0077916D01*
X0060658Y0078620D01*
X0061038Y0079538D01*
X0061038Y0086352D01*
X0060658Y0087271D01*
X0059621Y0088307D01*
X0059621Y0092743D01*
X0059241Y0093662D01*
X0057302Y0095600D01*
X0058568Y0095600D01*
X0058568Y0095174D01*
X0058949Y0094255D01*
X0059652Y0093552D01*
X0060571Y0093171D01*
X0063320Y0093171D01*
X0066592Y0089900D01*
X0066592Y0086245D01*
X0067763Y0085073D01*
X0072817Y0085073D01*
X0072425Y0084681D01*
X0068770Y0084681D01*
X0067598Y0083510D01*
X0067598Y0077490D01*
X0068770Y0076319D01*
X0074789Y0076319D01*
X0075961Y0077490D01*
X0075961Y0081146D01*
X0077598Y0082783D01*
X0077598Y0082490D01*
X0078770Y0081319D01*
X0081386Y0081319D01*
X0079836Y0079769D01*
X0079456Y0078850D01*
X0079456Y0075998D01*
X0078820Y0075363D01*
X0072533Y0075363D01*
X0071614Y0074982D01*
X0070911Y0074279D01*
X0069948Y0073317D01*
X0069568Y0072398D01*
X0069568Y0065698D01*
X0069480Y0065487D01*
X0069480Y0064681D01*
X0066270Y0064681D01*
X0065098Y0063510D01*
X0065098Y0059854D01*
X0064444Y0059200D01*
X0065093Y0059849D02*
X0051680Y0059849D01*
X0051680Y0061448D02*
X0065098Y0061448D01*
X0065098Y0063046D02*
X0051680Y0063046D01*
X0051680Y0064645D02*
X0066234Y0064645D01*
X0069568Y0066243D02*
X0051680Y0066243D01*
X0051680Y0067842D02*
X0069568Y0067842D01*
X0069568Y0069440D02*
X0054256Y0069440D01*
X0055854Y0071039D02*
X0069568Y0071039D01*
X0069667Y0072637D02*
X0057453Y0072637D01*
X0058891Y0074236D02*
X0070868Y0074236D01*
X0067656Y0077433D02*
X0059471Y0077433D01*
X0059159Y0075834D02*
X0079292Y0075834D01*
X0079456Y0077433D02*
X0075903Y0077433D01*
X0075961Y0079032D02*
X0079531Y0079032D01*
X0080697Y0080630D02*
X0075961Y0080630D01*
X0077044Y0082229D02*
X0077860Y0082229D01*
X0067916Y0083827D02*
X0061038Y0083827D01*
X0061038Y0082229D02*
X0067598Y0082229D01*
X0067598Y0080630D02*
X0061038Y0080630D01*
X0060828Y0079032D02*
X0067598Y0079032D01*
X0067411Y0085426D02*
X0061038Y0085426D01*
X0060760Y0087024D02*
X0066592Y0087024D01*
X0066592Y0088623D02*
X0059621Y0088623D01*
X0059621Y0090221D02*
X0066270Y0090221D01*
X0064672Y0091820D02*
X0059621Y0091820D01*
X0059341Y0093418D02*
X0059976Y0093418D01*
X0058634Y0095017D02*
X0057886Y0095017D01*
X0047299Y0096650D02*
X0043051Y0096650D01*
X0041880Y0095478D01*
X0041880Y0094700D01*
X0034551Y0094700D01*
X0025499Y0103752D01*
X0025499Y0109778D01*
X0025118Y0110697D01*
X0022025Y0113790D01*
X0022280Y0114406D01*
X0022280Y0114737D01*
X0022386Y0114552D01*
X0022722Y0114217D01*
X0023132Y0113980D01*
X0023590Y0113857D01*
X0026103Y0113857D01*
X0026103Y0117934D01*
X0022027Y0117934D01*
X0022027Y0117204D01*
X0021442Y0118615D01*
X0019895Y0120163D01*
X0018838Y0120601D01*
X0019557Y0120967D01*
X0020232Y0121457D01*
X0020822Y0122047D01*
X0021312Y0122722D01*
X0021691Y0123466D01*
X0021949Y0124259D01*
X0022080Y0125083D01*
X0022080Y0125300D01*
X0016980Y0125300D01*
X0016980Y0125700D01*
X0022080Y0125700D01*
X0022080Y0125917D01*
X0021949Y0126741D01*
X0021691Y0127534D01*
X0021312Y0128278D01*
X0020822Y0128953D01*
X0020232Y0129543D01*
X0019557Y0130033D01*
X0018814Y0130412D01*
X0018021Y0130669D01*
X0017197Y0130800D01*
X0016980Y0130800D01*
X0016980Y0125700D01*
X0016580Y0125700D01*
X0016580Y0130800D01*
X0016362Y0130800D01*
X0015538Y0130669D01*
X0014745Y0130412D01*
X0014002Y0130033D01*
X0013327Y0129543D01*
X0012737Y0128953D01*
X0012247Y0128278D01*
X0011868Y0127534D01*
X0011780Y0127263D01*
X0011780Y0130500D01*
X0016780Y0135500D01*
X0021827Y0135500D01*
X0021827Y0128609D01*
X0022998Y0127437D01*
X0029465Y0127437D01*
X0029465Y0123363D01*
X0027456Y0123363D01*
X0027456Y0119287D01*
X0026103Y0119287D01*
X0026103Y0123363D01*
X0023590Y0123363D01*
X0023132Y0123240D01*
X0022722Y0123003D01*
X0022386Y0122668D01*
X0022149Y0122258D01*
X0022027Y0121800D01*
X0022027Y0119287D01*
X0026103Y0119287D01*
X0026103Y0117934D01*
X0027456Y0117934D01*
X0027456Y0119287D01*
X0031532Y0119287D01*
X0031532Y0121335D01*
X0036230Y0121335D01*
X0036780Y0121884D01*
X0036918Y0121746D01*
X0034227Y0119056D01*
X0033846Y0118137D01*
X0033846Y0117940D01*
X0033642Y0117855D01*
X0032299Y0116512D01*
X0031572Y0114757D01*
X0031572Y0112857D01*
X0032299Y0111102D01*
X0033642Y0109759D01*
X0035397Y0109032D01*
X0037296Y0109032D01*
X0039051Y0109759D01*
X0040283Y0110992D01*
X0040339Y0110936D01*
X0040339Y0110517D01*
X0039772Y0109949D01*
X0039392Y0109030D01*
X0039392Y0108036D01*
X0039706Y0107276D01*
X0039706Y0106612D01*
X0039197Y0106612D01*
X0038025Y0105440D01*
X0038025Y0099421D01*
X0039197Y0098250D01*
X0045216Y0098250D01*
X0045457Y0098491D01*
X0047299Y0096650D01*
X0045735Y0098214D02*
X0031037Y0098214D01*
X0029439Y0099812D02*
X0038025Y0099812D01*
X0038025Y0101411D02*
X0027840Y0101411D01*
X0026242Y0103009D02*
X0038025Y0103009D01*
X0038025Y0104608D02*
X0025499Y0104608D01*
X0025499Y0106206D02*
X0038791Y0106206D01*
X0039487Y0107805D02*
X0025499Y0107805D01*
X0025499Y0109403D02*
X0034501Y0109403D01*
X0032399Y0111002D02*
X0024813Y0111002D01*
X0023215Y0112600D02*
X0031678Y0112600D01*
X0031572Y0114199D02*
X0030806Y0114199D01*
X0030837Y0114217D02*
X0031173Y0114552D01*
X0031410Y0114963D01*
X0031532Y0115420D01*
X0031532Y0117934D01*
X0027456Y0117934D01*
X0027456Y0113857D01*
X0029969Y0113857D01*
X0030427Y0113980D01*
X0030837Y0114217D01*
X0031532Y0115797D02*
X0032003Y0115797D01*
X0031532Y0117396D02*
X0033183Y0117396D01*
X0034202Y0118994D02*
X0027456Y0118994D01*
X0026103Y0118994D02*
X0021063Y0118994D01*
X0021947Y0117396D02*
X0022027Y0117396D01*
X0022027Y0120593D02*
X0018857Y0120593D01*
X0020927Y0122191D02*
X0022132Y0122191D01*
X0021797Y0123790D02*
X0029465Y0123790D01*
X0029465Y0125388D02*
X0016980Y0125388D01*
X0016980Y0126987D02*
X0016580Y0126987D01*
X0016580Y0128585D02*
X0016980Y0128585D01*
X0016980Y0130184D02*
X0016580Y0130184D01*
X0014298Y0130184D02*
X0011780Y0130184D01*
X0011780Y0128585D02*
X0012470Y0128585D01*
X0013062Y0131782D02*
X0021827Y0131782D01*
X0021827Y0130184D02*
X0019261Y0130184D01*
X0021089Y0128585D02*
X0021850Y0128585D01*
X0021869Y0126987D02*
X0029465Y0126987D01*
X0027456Y0122191D02*
X0026103Y0122191D01*
X0026103Y0120593D02*
X0027456Y0120593D01*
X0027456Y0117396D02*
X0026103Y0117396D01*
X0026103Y0115797D02*
X0027456Y0115797D01*
X0027456Y0114199D02*
X0026103Y0114199D01*
X0022753Y0114199D02*
X0022194Y0114199D01*
X0031532Y0120593D02*
X0035764Y0120593D01*
X0039638Y0117396D02*
X0041057Y0117396D01*
X0041237Y0118994D02*
X0060955Y0118994D01*
X0060955Y0120593D02*
X0042099Y0120593D01*
X0043780Y0122191D02*
X0044779Y0122191D01*
X0047384Y0117396D02*
X0048931Y0117396D01*
X0055258Y0117396D02*
X0056805Y0117396D01*
X0057528Y0121731D02*
X0055310Y0121731D01*
X0055310Y0125316D01*
X0059091Y0125316D01*
X0059091Y0123295D01*
X0058969Y0122837D01*
X0058732Y0122426D01*
X0058397Y0122091D01*
X0057986Y0121854D01*
X0057528Y0121731D01*
X0058497Y0122191D02*
X0059779Y0122191D01*
X0059268Y0123790D02*
X0059091Y0123790D01*
X0059268Y0125388D02*
X0055310Y0125388D01*
X0055310Y0125684D02*
X0059091Y0125684D01*
X0059091Y0127705D01*
X0058969Y0128163D01*
X0058732Y0128574D01*
X0058397Y0128909D01*
X0057986Y0129146D01*
X0057528Y0129268D01*
X0055310Y0129268D01*
X0055310Y0125684D01*
X0055310Y0126987D02*
X0054942Y0126987D01*
X0054942Y0128585D02*
X0055310Y0128585D01*
X0058720Y0128585D02*
X0059556Y0128585D01*
X0059268Y0126987D02*
X0059091Y0126987D01*
X0055310Y0123790D02*
X0054942Y0123790D01*
X0054942Y0122191D02*
X0055310Y0122191D01*
X0044556Y0128585D02*
X0044003Y0128585D01*
X0035933Y0130184D02*
X0082974Y0130184D01*
X0084526Y0131782D02*
X0034923Y0131782D01*
X0033325Y0133381D02*
X0141780Y0133381D01*
X0141780Y0134979D02*
X0031732Y0134979D01*
X0021827Y0134979D02*
X0016259Y0134979D01*
X0014660Y0133381D02*
X0021827Y0133381D01*
X0038192Y0109403D02*
X0039546Y0109403D01*
X0043016Y0096615D02*
X0032636Y0096615D01*
X0034234Y0095017D02*
X0041880Y0095017D01*
X0041880Y0072637D02*
X0039481Y0072637D01*
X0039481Y0071039D02*
X0041880Y0071039D01*
X0041880Y0069440D02*
X0039481Y0069440D01*
X0041880Y0067842D02*
X0011780Y0067842D01*
X0011780Y0069440D02*
X0031119Y0069440D01*
X0030611Y0071039D02*
X0011780Y0071039D01*
X0011780Y0072637D02*
X0029012Y0072637D01*
X0019508Y0074236D02*
X0011780Y0074236D01*
X0011780Y0075834D02*
X0017909Y0075834D01*
X0016311Y0077433D02*
X0011780Y0077433D01*
X0011780Y0079032D02*
X0014712Y0079032D01*
X0014280Y0080630D02*
X0011780Y0080630D01*
X0011780Y0082229D02*
X0014280Y0082229D01*
X0014280Y0083827D02*
X0011780Y0083827D01*
X0011780Y0085426D02*
X0014280Y0085426D01*
X0014280Y0087024D02*
X0011780Y0087024D01*
X0011780Y0088623D02*
X0014280Y0088623D01*
X0014280Y0090221D02*
X0011780Y0090221D01*
X0011780Y0091820D02*
X0012682Y0091820D01*
X0011780Y0066243D02*
X0017809Y0066243D01*
X0015688Y0064645D02*
X0011780Y0064645D01*
X0011780Y0063046D02*
X0014424Y0063046D01*
X0014280Y0061448D02*
X0011780Y0061448D01*
X0011780Y0059849D02*
X0014280Y0059849D01*
X0014280Y0058251D02*
X0011780Y0058251D01*
X0011780Y0056652D02*
X0014280Y0056652D01*
X0014280Y0055054D02*
X0011780Y0055054D01*
X0011780Y0053455D02*
X0014280Y0053455D01*
X0014280Y0051857D02*
X0011780Y0051857D01*
X0011780Y0050258D02*
X0014280Y0050258D01*
X0014280Y0048660D02*
X0011780Y0048660D01*
X0011780Y0047061D02*
X0012671Y0047061D01*
X0012009Y0045463D02*
X0011780Y0045463D01*
X0011780Y0043864D02*
X0011980Y0043864D01*
X0011780Y0042266D02*
X0012483Y0042266D01*
X0011780Y0040667D02*
X0013761Y0040667D01*
X0012914Y0039069D02*
X0011780Y0039069D01*
X0011780Y0037470D02*
X0012266Y0037470D01*
X0012232Y0035872D02*
X0011780Y0035872D01*
X0011780Y0034273D02*
X0012784Y0034273D01*
X0011780Y0032675D02*
X0014305Y0032675D01*
X0011780Y0031076D02*
X0027379Y0031076D01*
X0026081Y0029478D02*
X0011780Y0029478D01*
X0011780Y0027879D02*
X0025913Y0027879D01*
X0025913Y0026281D02*
X0011780Y0026281D01*
X0011780Y0024682D02*
X0025913Y0024682D01*
X0025913Y0023084D02*
X0011780Y0023084D01*
X0011780Y0021485D02*
X0026671Y0021485D01*
X0025171Y0019887D02*
X0028800Y0019887D01*
X0027254Y0018288D02*
X0026578Y0018288D01*
X0031580Y0015300D02*
X0031580Y0011026D01*
X0031980Y0011026D01*
X0031980Y0015300D01*
X0031580Y0015300D01*
X0031580Y0015091D02*
X0031980Y0015091D01*
X0031980Y0013493D02*
X0031580Y0013493D01*
X0031580Y0011894D02*
X0031980Y0011894D01*
X0018388Y0019887D02*
X0012393Y0019887D01*
X0013991Y0018288D02*
X0016981Y0018288D01*
X0016319Y0016690D02*
X0015590Y0016690D01*
X0016780Y0031963D02*
X0017142Y0031963D01*
X0017857Y0032076D01*
X0018545Y0032300D01*
X0019190Y0032629D01*
X0019776Y0033054D01*
X0020288Y0033566D01*
X0020714Y0034152D01*
X0021043Y0034797D01*
X0021266Y0035486D01*
X0021380Y0036201D01*
X0021380Y0036563D01*
X0016780Y0036563D01*
X0016780Y0036563D01*
X0016780Y0031963D01*
X0016779Y0032675D02*
X0016780Y0032675D01*
X0016779Y0034273D02*
X0016780Y0034273D01*
X0016779Y0035872D02*
X0016780Y0035872D01*
X0019254Y0032675D02*
X0028977Y0032675D01*
X0030576Y0034273D02*
X0020776Y0034273D01*
X0021327Y0035872D02*
X0032174Y0035872D01*
X0021293Y0037470D02*
X0050630Y0037470D01*
X0050630Y0039069D02*
X0020645Y0039069D01*
X0019798Y0040667D02*
X0050630Y0040667D01*
X0050630Y0042266D02*
X0021076Y0042266D01*
X0021580Y0043864D02*
X0050630Y0043864D01*
X0041938Y0045463D02*
X0021550Y0045463D01*
X0020888Y0047061D02*
X0041880Y0047061D01*
X0041880Y0048660D02*
X0019280Y0048660D01*
X0019280Y0050258D02*
X0041880Y0050258D01*
X0041880Y0064645D02*
X0039373Y0064645D01*
X0037252Y0066243D02*
X0041880Y0066243D01*
X0079280Y0063046D02*
X0101880Y0063046D01*
X0101880Y0061448D02*
X0079280Y0061448D01*
X0079280Y0059849D02*
X0101880Y0059849D01*
X0101880Y0058251D02*
X0079280Y0058251D01*
X0079280Y0056652D02*
X0101880Y0056652D01*
X0101880Y0055054D02*
X0079280Y0055054D01*
X0079280Y0053455D02*
X0101880Y0053455D01*
X0101880Y0051857D02*
X0079280Y0051857D01*
X0079280Y0050258D02*
X0101880Y0050258D01*
X0116690Y0064645D02*
X0118571Y0064645D01*
X0118682Y0066243D02*
X0116683Y0066243D01*
X0117252Y0067842D02*
X0115614Y0067842D01*
X0116590Y0069440D02*
X0111680Y0069440D01*
X0111680Y0071039D02*
X0116580Y0071039D01*
X0117036Y0072637D02*
X0111680Y0072637D01*
X0111680Y0074236D02*
X0118162Y0074236D01*
X0119958Y0075834D02*
X0111680Y0075834D01*
X0111680Y0077433D02*
X0117827Y0077433D01*
X0116999Y0079032D02*
X0111680Y0079032D01*
X0111680Y0080630D02*
X0116780Y0080630D01*
X0117084Y0082229D02*
X0111680Y0082229D01*
X0111680Y0083827D02*
X0118036Y0083827D01*
X0119789Y0086319D02*
X0120961Y0087490D01*
X0120961Y0088000D01*
X0123971Y0088000D01*
X0123983Y0087988D01*
X0129576Y0087988D01*
X0130748Y0089160D01*
X0130748Y0095147D01*
X0130395Y0095500D01*
X0130748Y0095853D01*
X0130748Y0101840D01*
X0129588Y0103000D01*
X0130748Y0104160D01*
X0130748Y0110147D01*
X0130236Y0110659D01*
X0130425Y0110986D01*
X0130548Y0111444D01*
X0130548Y0113662D01*
X0126964Y0113662D01*
X0126964Y0114031D01*
X0126595Y0114031D01*
X0126595Y0117812D01*
X0124574Y0117812D01*
X0124116Y0117689D01*
X0123706Y0117452D01*
X0123371Y0117117D01*
X0123134Y0116707D01*
X0123011Y0116249D01*
X0123011Y0114031D01*
X0126595Y0114031D01*
X0126595Y0113662D01*
X0123011Y0113662D01*
X0123011Y0111444D01*
X0123134Y0110986D01*
X0123323Y0110659D01*
X0122811Y0110147D01*
X0122811Y0105874D01*
X0122706Y0105917D01*
X0121309Y0105917D01*
X0121309Y0106427D01*
X0120137Y0107598D01*
X0114118Y0107598D01*
X0112946Y0106427D01*
X0112946Y0100408D01*
X0114118Y0099236D01*
X0120137Y0099236D01*
X0121309Y0100408D01*
X0121309Y0100782D01*
X0122811Y0099279D01*
X0122811Y0095853D01*
X0123164Y0095500D01*
X0122811Y0095147D01*
X0122811Y0093000D01*
X0120961Y0093000D01*
X0120961Y0093510D01*
X0119789Y0094681D01*
X0113770Y0094681D01*
X0112598Y0093510D01*
X0112598Y0087490D01*
X0113770Y0086319D01*
X0119789Y0086319D01*
X0120494Y0087024D02*
X0141780Y0087024D01*
X0141780Y0085426D02*
X0133476Y0085426D01*
X0135806Y0083827D02*
X0141780Y0083827D01*
X0141780Y0082229D02*
X0136692Y0082229D01*
X0136980Y0080630D02*
X0141780Y0080630D01*
X0141780Y0079032D02*
X0136800Y0079032D01*
X0136066Y0077433D02*
X0141780Y0077433D01*
X0141780Y0075834D02*
X0134104Y0075834D01*
X0135397Y0074236D02*
X0141780Y0074236D01*
X0141780Y0072637D02*
X0136523Y0072637D01*
X0136980Y0071039D02*
X0141780Y0071039D01*
X0141780Y0069440D02*
X0136969Y0069440D01*
X0136307Y0067842D02*
X0141780Y0067842D01*
X0141780Y0066243D02*
X0134877Y0066243D01*
X0134989Y0064645D02*
X0141780Y0064645D01*
X0141780Y0063046D02*
X0136353Y0063046D01*
X0136980Y0061448D02*
X0141780Y0061448D01*
X0141780Y0059849D02*
X0136980Y0059849D01*
X0136476Y0058251D02*
X0141780Y0058251D01*
X0141780Y0056652D02*
X0135286Y0056652D01*
X0139265Y0055054D02*
X0141780Y0055054D01*
X0141780Y0053455D02*
X0139382Y0053455D01*
X0121865Y0080630D02*
X0121694Y0080630D01*
X0121694Y0082229D02*
X0121865Y0082229D01*
X0121865Y0083827D02*
X0121694Y0083827D01*
X0121694Y0085426D02*
X0121865Y0085426D01*
X0122643Y0085426D02*
X0130083Y0085426D01*
X0127753Y0083827D02*
X0125524Y0083827D01*
X0126475Y0082229D02*
X0126867Y0082229D01*
X0120916Y0085426D02*
X0111680Y0085426D01*
X0111680Y0087024D02*
X0113065Y0087024D01*
X0112598Y0088623D02*
X0111680Y0088623D01*
X0111680Y0090221D02*
X0112598Y0090221D01*
X0112598Y0091820D02*
X0111680Y0091820D01*
X0111680Y0093418D02*
X0112598Y0093418D01*
X0111680Y0095017D02*
X0122811Y0095017D01*
X0122811Y0096615D02*
X0110543Y0096615D01*
X0113542Y0099812D02*
X0102930Y0099812D01*
X0102930Y0098214D02*
X0122811Y0098214D01*
X0122278Y0099812D02*
X0120713Y0099812D01*
X0120961Y0093418D02*
X0122811Y0093418D01*
X0130748Y0093418D02*
X0141780Y0093418D01*
X0141780Y0091820D02*
X0130748Y0091820D01*
X0130748Y0090221D02*
X0141780Y0090221D01*
X0141780Y0088623D02*
X0130211Y0088623D01*
X0130748Y0095017D02*
X0141780Y0095017D01*
X0141780Y0096615D02*
X0130748Y0096615D01*
X0130748Y0098214D02*
X0141780Y0098214D01*
X0141780Y0099812D02*
X0130748Y0099812D01*
X0130748Y0101411D02*
X0141780Y0101411D01*
X0141780Y0103009D02*
X0129597Y0103009D01*
X0130748Y0104608D02*
X0141780Y0104608D01*
X0141780Y0106206D02*
X0130748Y0106206D01*
X0130748Y0107805D02*
X0141780Y0107805D01*
X0141780Y0109403D02*
X0130748Y0109403D01*
X0130429Y0111002D02*
X0141780Y0111002D01*
X0141780Y0112600D02*
X0130548Y0112600D01*
X0130548Y0114031D02*
X0130548Y0116249D01*
X0130425Y0116707D01*
X0130188Y0117117D01*
X0129853Y0117452D01*
X0129443Y0117689D01*
X0128985Y0117812D01*
X0126964Y0117812D01*
X0126964Y0114031D01*
X0130548Y0114031D01*
X0130548Y0114199D02*
X0141780Y0114199D01*
X0141780Y0115797D02*
X0130548Y0115797D01*
X0129910Y0117396D02*
X0141780Y0117396D01*
X0141780Y0118994D02*
X0111247Y0118994D01*
X0111247Y0120593D02*
X0141780Y0120593D01*
X0141780Y0122191D02*
X0111247Y0122191D01*
X0110056Y0117396D02*
X0123649Y0117396D01*
X0123011Y0115797D02*
X0111333Y0115797D01*
X0111782Y0114199D02*
X0123011Y0114199D01*
X0123011Y0112600D02*
X0111631Y0112600D01*
X0110829Y0111002D02*
X0123130Y0111002D01*
X0122811Y0109403D02*
X0108463Y0109403D01*
X0107213Y0109403D02*
X0107213Y0109403D01*
X0107213Y0109232D02*
X0107213Y0113807D01*
X0107213Y0113807D01*
X0107213Y0117736D01*
X0107213Y0117736D01*
X0107213Y0113807D01*
X0107213Y0113807D01*
X0107213Y0109232D01*
X0105962Y0109403D02*
X0101184Y0109403D01*
X0103286Y0111002D02*
X0103596Y0111002D01*
X0107213Y0111002D02*
X0107213Y0111002D01*
X0107213Y0112600D02*
X0107213Y0112600D01*
X0107213Y0114199D02*
X0107213Y0114199D01*
X0107213Y0115797D02*
X0107213Y0115797D01*
X0107213Y0117396D02*
X0107213Y0117396D01*
X0097493Y0109403D02*
X0093310Y0109403D01*
X0089619Y0109403D02*
X0085436Y0109403D01*
X0084174Y0107805D02*
X0122811Y0107805D01*
X0122811Y0106206D02*
X0121309Y0106206D01*
X0126595Y0114199D02*
X0126964Y0114199D01*
X0126964Y0115797D02*
X0126595Y0115797D01*
X0126595Y0117396D02*
X0126964Y0117396D01*
X0127423Y0123790D02*
X0131568Y0123790D01*
X0129999Y0125388D02*
X0128826Y0125388D01*
X0129003Y0130184D02*
X0129781Y0130184D01*
X0130991Y0131782D02*
X0127851Y0131782D01*
X0120708Y0131782D02*
X0117851Y0131782D01*
X0119003Y0130184D02*
X0119556Y0130184D01*
X0119733Y0125388D02*
X0118826Y0125388D01*
X0117423Y0123790D02*
X0121136Y0123790D01*
X0134080Y0123790D02*
X0134480Y0123790D01*
X0134480Y0123000D02*
X0134673Y0123000D01*
X0135450Y0123123D01*
X0136199Y0123366D01*
X0136900Y0123724D01*
X0137537Y0124186D01*
X0138093Y0124743D01*
X0138556Y0125379D01*
X0138913Y0126081D01*
X0139156Y0126829D01*
X0139280Y0127606D01*
X0139280Y0127800D01*
X0134480Y0127800D01*
X0134480Y0123000D01*
X0134480Y0125388D02*
X0134080Y0125388D01*
X0134080Y0126987D02*
X0134480Y0126987D01*
X0134480Y0128585D02*
X0134080Y0128585D01*
X0134080Y0130184D02*
X0134480Y0130184D01*
X0134480Y0131782D02*
X0134080Y0131782D01*
X0137568Y0131782D02*
X0141780Y0131782D01*
X0141780Y0130184D02*
X0138778Y0130184D01*
X0139249Y0128585D02*
X0141780Y0128585D01*
X0141780Y0126987D02*
X0139181Y0126987D01*
X0138560Y0125388D02*
X0141780Y0125388D01*
X0141780Y0123790D02*
X0136991Y0123790D01*
X0112946Y0106206D02*
X0084174Y0106206D01*
X0087528Y0116623D02*
X0086295Y0117855D01*
X0084540Y0118582D01*
X0082641Y0118582D01*
X0080886Y0117855D01*
X0079654Y0116623D01*
X0078421Y0117855D01*
X0076666Y0118582D01*
X0075325Y0118582D01*
X0075325Y0121997D01*
X0075573Y0121854D01*
X0076031Y0121731D01*
X0078249Y0121731D01*
X0078249Y0125316D01*
X0078617Y0125316D01*
X0078617Y0121731D01*
X0080835Y0121731D01*
X0081293Y0121854D01*
X0081621Y0122043D01*
X0082132Y0121531D01*
X0088120Y0121531D01*
X0089280Y0122691D01*
X0090439Y0121531D01*
X0091105Y0121531D01*
X0091105Y0120814D01*
X0091486Y0119895D01*
X0092189Y0119192D01*
X0093071Y0118310D01*
X0092414Y0118582D01*
X0090515Y0118582D01*
X0088760Y0117855D01*
X0087528Y0116623D01*
X0086754Y0117396D02*
X0088301Y0117396D01*
X0091197Y0120593D02*
X0075325Y0120593D01*
X0075325Y0118994D02*
X0092387Y0118994D01*
X0089779Y0122191D02*
X0088780Y0122191D01*
X0080427Y0117396D02*
X0078880Y0117396D01*
X0078617Y0122191D02*
X0078249Y0122191D01*
X0078249Y0123790D02*
X0078617Y0123790D01*
X0078249Y0125388D02*
X0070310Y0125388D01*
X0070310Y0125684D02*
X0074091Y0125684D01*
X0074091Y0127705D01*
X0073969Y0128163D01*
X0073732Y0128574D01*
X0073397Y0128909D01*
X0072986Y0129146D01*
X0072528Y0129268D01*
X0070310Y0129268D01*
X0070310Y0125684D01*
X0070310Y0126987D02*
X0069942Y0126987D01*
X0069942Y0128585D02*
X0070310Y0128585D01*
X0073720Y0128585D02*
X0074839Y0128585D01*
X0074827Y0128574D02*
X0074590Y0128163D01*
X0074468Y0127705D01*
X0074468Y0125684D01*
X0078249Y0125684D01*
X0078249Y0129268D01*
X0076031Y0129268D01*
X0075573Y0129146D01*
X0075162Y0128909D01*
X0074827Y0128574D01*
X0074468Y0126987D02*
X0074091Y0126987D01*
X0074091Y0123790D02*
X0074468Y0123790D01*
X0078249Y0126987D02*
X0078617Y0126987D01*
X0078617Y0128585D02*
X0078249Y0128585D01*
X0094142Y0131782D02*
X0099810Y0131782D01*
X0098040Y0130184D02*
X0095740Y0130184D01*
X0102550Y0104608D02*
X0112946Y0104608D01*
X0112946Y0103009D02*
X0102930Y0103009D01*
X0102930Y0101411D02*
X0112946Y0101411D01*
X0103016Y0096615D02*
X0102773Y0096615D01*
X0101880Y0095017D02*
X0094980Y0095017D01*
X0095149Y0093418D02*
X0101880Y0093418D01*
X0101880Y0091820D02*
X0095149Y0091820D01*
X0095605Y0090221D02*
X0101880Y0090221D01*
X0101880Y0088623D02*
X0096791Y0088623D01*
X0096881Y0087024D02*
X0101880Y0087024D01*
X0101880Y0085426D02*
X0096881Y0085426D01*
X0096881Y0083827D02*
X0101880Y0083827D01*
X0101880Y0082229D02*
X0096881Y0082229D01*
X0096881Y0080630D02*
X0101880Y0080630D01*
X0101880Y0079032D02*
X0096881Y0079032D01*
X0096588Y0077433D02*
X0101880Y0077433D01*
X0101880Y0075834D02*
X0095114Y0075834D01*
X0093515Y0074236D02*
X0101880Y0074236D01*
X0101880Y0072637D02*
X0091917Y0072637D01*
X0090756Y0071039D02*
X0101880Y0071039D01*
X0101880Y0069440D02*
X0090756Y0069440D01*
X0087528Y0024377D02*
X0086295Y0023145D01*
X0084540Y0022418D01*
X0082641Y0022418D01*
X0080886Y0023145D01*
X0079654Y0024377D01*
X0078421Y0023145D01*
X0076666Y0022418D01*
X0074767Y0022418D01*
X0073012Y0023145D01*
X0071780Y0024377D01*
X0070547Y0023145D01*
X0068792Y0022418D01*
X0066893Y0022418D01*
X0065138Y0023145D01*
X0063906Y0024377D01*
X0062673Y0023145D01*
X0060918Y0022418D01*
X0059019Y0022418D01*
X0057264Y0023145D01*
X0056031Y0024377D01*
X0054799Y0023145D01*
X0053044Y0022418D01*
X0052983Y0022418D01*
X0053438Y0021963D01*
X0053819Y0021045D01*
X0053819Y0020608D01*
X0054895Y0020163D01*
X0056442Y0018615D01*
X0057280Y0016594D01*
X0057280Y0014406D01*
X0056442Y0012384D01*
X0055084Y0011026D01*
X0063475Y0011026D01*
X0062117Y0012384D01*
X0061280Y0014406D01*
X0061280Y0016594D01*
X0062117Y0018615D01*
X0063664Y0020163D01*
X0065685Y0021000D01*
X0067874Y0021000D01*
X0069895Y0020163D01*
X0071442Y0018615D01*
X0071880Y0017558D01*
X0072247Y0018278D01*
X0072737Y0018953D01*
X0073327Y0019543D01*
X0074002Y0020033D01*
X0074745Y0020412D01*
X0075538Y0020669D01*
X0076362Y0020800D01*
X0076580Y0020800D01*
X0076580Y0015700D01*
X0076980Y0015700D01*
X0076980Y0020800D01*
X0077197Y0020800D01*
X0078021Y0020669D01*
X0078814Y0020412D01*
X0079557Y0020033D01*
X0080232Y0019543D01*
X0080822Y0018953D01*
X0081312Y0018278D01*
X0081679Y0017558D01*
X0082117Y0018615D01*
X0083664Y0020163D01*
X0085235Y0020814D01*
X0085363Y0020942D01*
X0088163Y0023742D01*
X0087528Y0024377D01*
X0087505Y0023084D02*
X0086147Y0023084D01*
X0085907Y0021485D02*
X0053636Y0021485D01*
X0054651Y0023084D02*
X0057412Y0023084D01*
X0055171Y0019887D02*
X0063388Y0019887D01*
X0061981Y0018288D02*
X0056578Y0018288D01*
X0057240Y0016690D02*
X0061319Y0016690D01*
X0061280Y0015091D02*
X0057280Y0015091D01*
X0056901Y0013493D02*
X0061658Y0013493D01*
X0062607Y0011894D02*
X0055952Y0011894D01*
X0062525Y0023084D02*
X0065286Y0023084D01*
X0070399Y0023084D02*
X0073160Y0023084D01*
X0073800Y0019887D02*
X0070171Y0019887D01*
X0071578Y0018288D02*
X0072254Y0018288D01*
X0076580Y0018288D02*
X0076980Y0018288D01*
X0076980Y0016690D02*
X0076580Y0016690D01*
X0076580Y0019887D02*
X0076980Y0019887D01*
X0079759Y0019887D02*
X0083388Y0019887D01*
X0081981Y0018288D02*
X0081305Y0018288D01*
X0081034Y0023084D02*
X0078273Y0023084D01*
M02*
