G75*
%MOIN*%
%OFA0B0*%
%FSLAX25Y25*%
%IPPOS*%
%LPD*%
%AMOC8*
5,1,8,0,0,1.08239X$1,22.5*
%
%ADD10C,0.06400*%
%ADD11C,0.06350*%
%ADD12C,0.07800*%
%ADD13C,0.07200*%
%ADD14R,0.04737X0.05131*%
%ADD15R,0.08280X0.06312*%
%ADD16R,0.06312X0.07887*%
%ADD17R,0.06706X0.03556*%
%ADD18R,0.05162X0.05162*%
D10*
X0016780Y0036563D03*
X0016780Y0044437D03*
X0122843Y0015500D03*
X0130717Y0015500D03*
D11*
X0107213Y0027193D03*
X0099339Y0027193D03*
X0091465Y0027193D03*
X0083591Y0027193D03*
X0075717Y0027193D03*
X0067843Y0027193D03*
X0059969Y0027193D03*
X0052094Y0027193D03*
X0044220Y0027193D03*
X0036346Y0027193D03*
X0036346Y0113807D03*
X0044220Y0113807D03*
X0052094Y0113807D03*
X0059969Y0113807D03*
X0067843Y0113807D03*
X0075717Y0113807D03*
X0083591Y0113807D03*
X0091465Y0113807D03*
X0099339Y0113807D03*
X0107213Y0113807D03*
D12*
X0021780Y0015500D03*
X0031780Y0015500D03*
X0041780Y0015500D03*
X0051780Y0015500D03*
X0066780Y0015500D03*
X0076780Y0015500D03*
X0086780Y0015500D03*
X0096780Y0015500D03*
X0016780Y0095500D03*
X0016780Y0105500D03*
X0016780Y0115500D03*
X0016780Y0125500D03*
D13*
X0114280Y0128000D03*
X0124280Y0128000D03*
X0134280Y0128000D03*
X0131780Y0080500D03*
X0131780Y0070500D03*
X0131780Y0060500D03*
X0121780Y0060500D03*
X0121780Y0070500D03*
X0121780Y0080500D03*
D14*
X0101780Y0087154D03*
X0101780Y0093846D03*
D15*
X0038472Y0047075D03*
X0034929Y0099043D03*
D16*
X0090047Y0076996D03*
X0090047Y0053374D03*
D17*
X0051465Y0076602D03*
X0049890Y0080933D03*
X0049890Y0072272D03*
X0048315Y0067941D03*
X0049890Y0063610D03*
X0048315Y0059280D03*
X0049890Y0054949D03*
X0049890Y0050618D03*
D18*
X0034209Y0059832D03*
X0028110Y0059860D03*
X0021780Y0055500D03*
X0019880Y0068320D03*
X0035300Y0072405D03*
X0038689Y0067241D03*
X0052905Y0090249D03*
X0060981Y0091301D03*
X0070773Y0089254D03*
X0071780Y0080500D03*
X0081780Y0085500D03*
X0090596Y0083533D03*
X0090968Y0091322D03*
X0079993Y0106929D03*
X0071144Y0119486D03*
X0056756Y0108121D03*
X0051028Y0107851D03*
X0042206Y0102431D03*
X0035111Y0106273D03*
X0076380Y0068010D03*
X0069280Y0060500D03*
X0099126Y0062595D03*
X0099048Y0069934D03*
X0116780Y0090500D03*
X0117127Y0103417D03*
X0107066Y0121917D03*
X0123260Y0052095D03*
X0110908Y0040167D03*
X0122445Y0022198D03*
M02*
