G75*
%MOIN*%
%OFA0B0*%
%FSLAX25Y25*%
%IPPOS*%
%LPD*%
%AMOC8*
5,1,8,0,0,1.08239X$1,22.5*
%
%ADD10C,0.00300*%
%ADD11C,0.00200*%
%ADD12C,0.00400*%
%ADD13C,0.00800*%
%ADD14C,0.00600*%
%ADD15R,0.03000X0.01800*%
%ADD16C,0.00500*%
D10*
X0024722Y0073891D02*
X0023755Y0074858D01*
X0024722Y0075826D01*
X0026657Y0075826D01*
X0025206Y0076837D02*
X0025689Y0077321D01*
X0025689Y0078772D01*
X0026657Y0078772D02*
X0023755Y0078772D01*
X0023755Y0077321D01*
X0024238Y0076837D01*
X0025206Y0076837D01*
X0025206Y0079784D02*
X0024238Y0079784D01*
X0023755Y0080268D01*
X0023755Y0081719D01*
X0026657Y0081719D01*
X0025689Y0081719D02*
X0025689Y0080268D01*
X0025206Y0079784D01*
X0025206Y0085677D02*
X0025206Y0087612D01*
X0024722Y0091570D02*
X0024722Y0093021D01*
X0025206Y0093505D01*
X0026173Y0093505D01*
X0026657Y0093021D01*
X0026657Y0091570D01*
X0023755Y0091570D01*
X0024722Y0092537D02*
X0023755Y0093505D01*
X0023755Y0094517D02*
X0025689Y0096452D01*
X0023755Y0096452D02*
X0025689Y0094517D01*
X0025206Y0100410D02*
X0025206Y0102345D01*
X0026657Y0106303D02*
X0026657Y0108238D01*
X0026657Y0107270D02*
X0023755Y0107270D01*
X0023755Y0109249D02*
X0025689Y0111184D01*
X0023755Y0111184D02*
X0025689Y0109249D01*
X0025206Y0115142D02*
X0025206Y0117077D01*
X0026173Y0121035D02*
X0024238Y0121035D01*
X0023755Y0121519D01*
X0023755Y0122486D01*
X0024238Y0122970D01*
X0025206Y0122970D01*
X0025206Y0122003D01*
X0026173Y0122970D02*
X0026657Y0122486D01*
X0026657Y0121519D01*
X0026173Y0121035D01*
X0026657Y0123982D02*
X0023755Y0123982D01*
X0023755Y0125917D02*
X0026657Y0125917D01*
X0026657Y0126928D02*
X0026657Y0128379D01*
X0026173Y0128863D01*
X0024238Y0128863D01*
X0023755Y0128379D01*
X0023755Y0126928D01*
X0026657Y0126928D01*
X0026657Y0123982D02*
X0023755Y0125917D01*
X0018431Y0089020D02*
X0018915Y0088537D01*
X0018915Y0087569D01*
X0018431Y0087085D01*
X0017947Y0087085D01*
X0017464Y0087569D01*
X0017464Y0088537D01*
X0016980Y0089020D01*
X0016496Y0089020D01*
X0016012Y0088537D01*
X0016012Y0087569D01*
X0016496Y0087085D01*
X0017464Y0086074D02*
X0016980Y0085590D01*
X0016980Y0084139D01*
X0016012Y0084139D02*
X0018915Y0084139D01*
X0018915Y0085590D01*
X0018431Y0086074D01*
X0017464Y0086074D01*
X0017464Y0083127D02*
X0017464Y0082160D01*
X0017464Y0083127D02*
X0016496Y0083127D01*
X0016012Y0082643D01*
X0016012Y0081676D01*
X0016496Y0081192D01*
X0018431Y0081192D01*
X0018915Y0081676D01*
X0018915Y0082643D01*
X0018431Y0083127D01*
X0024722Y0073891D02*
X0026657Y0073891D01*
D11*
X0022114Y0032166D02*
X0022481Y0031799D01*
X0023949Y0031799D01*
X0024316Y0032166D01*
X0024316Y0032899D01*
X0023949Y0033266D01*
X0023215Y0033266D02*
X0023215Y0032532D01*
X0023215Y0033266D02*
X0022481Y0033266D01*
X0022114Y0032899D01*
X0022114Y0032166D01*
X0022114Y0034008D02*
X0024316Y0034008D01*
X0022114Y0035476D01*
X0024316Y0035476D01*
X0024316Y0036218D02*
X0024316Y0037319D01*
X0023949Y0037686D01*
X0022481Y0037686D01*
X0022114Y0037319D01*
X0022114Y0036218D01*
X0024316Y0036218D01*
X0023215Y0040638D02*
X0023215Y0042106D01*
X0023215Y0045058D02*
X0023215Y0046159D01*
X0022848Y0046526D01*
X0022481Y0046526D01*
X0022114Y0046159D01*
X0022114Y0045058D01*
X0024316Y0045058D01*
X0024316Y0046159D01*
X0023949Y0046526D01*
X0023582Y0046526D01*
X0023215Y0046159D01*
X0022481Y0047268D02*
X0022114Y0047635D01*
X0022114Y0048369D01*
X0022481Y0048736D01*
X0024316Y0048736D01*
X0024316Y0049478D02*
X0024316Y0050945D01*
X0023949Y0050945D01*
X0022481Y0049478D01*
X0022114Y0049478D01*
X0022114Y0050945D01*
X0022114Y0051687D02*
X0022114Y0053155D01*
X0022114Y0051687D02*
X0022481Y0051687D01*
X0023949Y0053155D01*
X0024316Y0053155D01*
X0024316Y0051687D01*
X0024316Y0047268D02*
X0022481Y0047268D01*
D12*
X0063392Y0070610D02*
X0063227Y0071268D01*
X0063227Y0083713D01*
X0064324Y0083713D01*
X0065311Y0083932D01*
X0071122Y0085357D01*
X0074247Y0086125D01*
X0076714Y0086783D01*
X0078030Y0087221D01*
X0078358Y0087550D01*
X0078358Y0087715D01*
X0077152Y0088592D01*
X0069587Y0091662D01*
X0064762Y0086509D01*
X0064104Y0085741D01*
X0063721Y0085193D01*
X0063227Y0084480D01*
X0063227Y0087934D01*
X0063446Y0087989D01*
X0063776Y0088153D01*
X0064050Y0088372D01*
X0067887Y0092265D01*
X0064433Y0093635D01*
X0064159Y0093635D01*
X0063885Y0093800D01*
X0063556Y0093635D01*
X0063227Y0093635D01*
X0063227Y0099666D01*
X0063830Y0099063D01*
X0071451Y0095938D01*
X0077426Y0102298D01*
X0078413Y0103668D01*
X0078413Y0100433D01*
X0077536Y0099940D01*
X0073095Y0095390D01*
X0077426Y0093635D01*
X0077810Y0093635D01*
X0078413Y0093965D01*
X0078413Y0074941D01*
X0078084Y0073899D01*
X0077756Y0073241D01*
X0076823Y0072419D01*
X0076165Y0072309D01*
X0075563Y0071926D01*
X0073150Y0071323D01*
X0071670Y0071323D01*
X0071560Y0071378D01*
X0071012Y0072529D01*
X0070793Y0074119D01*
X0070793Y0073022D01*
X0070574Y0072145D01*
X0070300Y0071487D01*
X0069477Y0070665D01*
X0068929Y0070446D01*
X0066188Y0069788D01*
X0065749Y0069623D01*
X0064817Y0069623D01*
X0064269Y0069843D01*
X0063666Y0070171D01*
X0063392Y0070610D01*
X0065365Y0074009D02*
X0066243Y0073954D01*
X0069148Y0074722D01*
X0069532Y0074886D01*
X0069751Y0075215D01*
X0069751Y0080697D01*
X0065091Y0079546D01*
X0065091Y0074502D01*
X0065365Y0074009D01*
X0071725Y0076092D02*
X0071725Y0081081D01*
X0076549Y0082342D01*
X0076549Y0077024D01*
X0076440Y0076805D01*
X0076001Y0076421D01*
X0075672Y0076202D01*
X0072437Y0075380D01*
X0072273Y0075380D01*
X0071889Y0075654D01*
X0071725Y0076092D01*
X0075563Y0070117D02*
X0070683Y0069020D01*
X0070080Y0068856D01*
X0068765Y0068198D01*
X0068052Y0067704D01*
X0067504Y0066827D01*
X0067284Y0066169D01*
X0067230Y0065841D01*
X0067230Y0057233D01*
X0067449Y0056630D01*
X0067997Y0055917D01*
X0068216Y0055698D01*
X0070135Y0055698D01*
X0073918Y0056630D01*
X0073918Y0065621D01*
X0075782Y0066060D01*
X0076111Y0066169D01*
X0076494Y0066115D01*
X0076659Y0065895D01*
X0076659Y0058001D01*
X0076549Y0057288D01*
X0078413Y0058056D01*
X0078413Y0068911D01*
X0078304Y0069349D01*
X0077975Y0069788D01*
X0077591Y0070062D01*
X0076988Y0070226D01*
X0076440Y0070226D01*
X0075563Y0070117D01*
X0072163Y0065128D02*
X0072218Y0065073D01*
X0072218Y0060358D01*
X0069861Y0059755D01*
X0069148Y0059755D01*
X0068984Y0059920D01*
X0068929Y0060139D01*
X0068929Y0064031D01*
X0069093Y0064360D01*
X0069477Y0064580D01*
X0069916Y0064744D01*
X0072163Y0065128D01*
X0075563Y0055534D02*
X0070683Y0054437D01*
X0070080Y0054273D01*
X0068765Y0053615D01*
X0068052Y0053122D01*
X0067504Y0052244D01*
X0067284Y0051587D01*
X0067230Y0051258D01*
X0067230Y0042650D01*
X0067449Y0042048D01*
X0067997Y0041335D01*
X0068216Y0041115D01*
X0070135Y0041115D01*
X0073918Y0042048D01*
X0073918Y0051039D01*
X0075782Y0051477D01*
X0076111Y0051587D01*
X0076494Y0051532D01*
X0076659Y0051313D01*
X0076659Y0043418D01*
X0076549Y0042706D01*
X0078413Y0043473D01*
X0078413Y0054328D01*
X0078304Y0054767D01*
X0077975Y0055205D01*
X0077591Y0055479D01*
X0076988Y0055644D01*
X0076440Y0055644D01*
X0075563Y0055534D01*
X0072163Y0050545D02*
X0072218Y0050490D01*
X0072218Y0045776D01*
X0069861Y0045172D01*
X0069148Y0045172D01*
X0068984Y0045337D01*
X0068929Y0045556D01*
X0068929Y0049448D01*
X0069093Y0049778D01*
X0069477Y0049997D01*
X0069916Y0050161D01*
X0072163Y0050545D01*
X0084334Y0046926D02*
X0084937Y0048078D01*
X0086691Y0050161D01*
X0088172Y0051641D01*
X0088610Y0051806D01*
X0089926Y0052080D01*
X0091022Y0052135D01*
X0092064Y0051587D01*
X0092667Y0050654D01*
X0092667Y0049394D01*
X0092448Y0047804D01*
X0091790Y0046762D01*
X0091461Y0045337D01*
X0090694Y0044569D01*
X0089871Y0043528D01*
X0088775Y0042924D01*
X0088062Y0042815D01*
X0087020Y0043089D01*
X0086253Y0044021D01*
X0085485Y0045117D01*
X0085266Y0045885D01*
X0084992Y0045940D01*
X0084554Y0046324D01*
X0084334Y0046872D01*
X0086198Y0047475D02*
X0086637Y0048078D01*
X0087733Y0049503D01*
X0088994Y0050435D01*
X0090584Y0050929D01*
X0091132Y0050983D01*
X0091406Y0050490D01*
X0091352Y0049174D01*
X0090858Y0047859D01*
X0090419Y0046488D01*
X0089761Y0045337D01*
X0088994Y0044240D01*
X0087678Y0044240D01*
X0086417Y0045446D01*
X0086198Y0046104D01*
X0086198Y0047475D01*
X0085759Y0053341D02*
X0086253Y0053615D01*
X0086691Y0053615D01*
X0087130Y0054054D01*
X0087514Y0054657D01*
X0088062Y0055863D01*
X0088775Y0057014D01*
X0089104Y0057562D01*
X0089926Y0056740D01*
X0090639Y0055698D01*
X0091242Y0054931D01*
X0091790Y0054492D01*
X0092338Y0054273D01*
X0092667Y0054218D01*
X0092996Y0054382D01*
X0093051Y0054547D01*
X0092722Y0054985D01*
X0091022Y0057124D01*
X0089652Y0059152D01*
X0089652Y0059536D01*
X0090036Y0059645D01*
X0091132Y0060029D01*
X0092119Y0060358D01*
X0092667Y0060578D01*
X0092996Y0060578D01*
X0092448Y0061180D01*
X0091626Y0061235D01*
X0091077Y0061126D01*
X0089323Y0060632D01*
X0088336Y0060358D01*
X0086966Y0059755D01*
X0086253Y0059371D01*
X0085869Y0059207D01*
X0085814Y0059591D01*
X0086143Y0060029D01*
X0086089Y0060029D01*
X0085869Y0060194D01*
X0085705Y0060468D01*
X0085485Y0060578D01*
X0085156Y0060522D01*
X0084828Y0060194D01*
X0084608Y0059591D01*
X0084334Y0058878D01*
X0084334Y0055698D01*
X0084498Y0055040D01*
X0084773Y0054273D01*
X0085047Y0053834D01*
X0085485Y0053450D01*
X0085759Y0053341D01*
X0086089Y0054876D02*
X0086198Y0055259D01*
X0086746Y0055808D01*
X0087185Y0056575D01*
X0087569Y0057288D01*
X0087733Y0058110D01*
X0088062Y0058768D01*
X0086198Y0057727D01*
X0085650Y0057672D01*
X0085650Y0055698D01*
X0085759Y0055040D01*
X0086089Y0054876D01*
X0086033Y0062551D02*
X0086253Y0062551D01*
X0086746Y0062770D01*
X0087130Y0063099D01*
X0087569Y0063757D01*
X0088775Y0066169D01*
X0089268Y0067430D01*
X0089487Y0068417D01*
X0089542Y0068746D01*
X0089542Y0069130D01*
X0090036Y0069294D01*
X0091022Y0069623D01*
X0091900Y0069897D01*
X0092283Y0070117D01*
X0092503Y0070226D01*
X0092612Y0070446D01*
X0092448Y0070720D01*
X0092119Y0070939D01*
X0091735Y0070939D01*
X0091296Y0070829D01*
X0090255Y0070336D01*
X0089487Y0070007D01*
X0088775Y0069897D01*
X0088117Y0069733D01*
X0087240Y0069459D01*
X0086582Y0069185D01*
X0086143Y0068911D01*
X0086143Y0069349D01*
X0085211Y0069349D01*
X0085211Y0068856D01*
X0084882Y0068417D01*
X0084444Y0067978D01*
X0084718Y0067485D01*
X0084718Y0065511D01*
X0084882Y0063922D01*
X0085540Y0062825D01*
X0086033Y0062551D01*
X0086198Y0063812D02*
X0086363Y0063867D01*
X0086582Y0064141D01*
X0087020Y0065018D01*
X0087514Y0065731D01*
X0087788Y0066718D01*
X0088062Y0067430D01*
X0088117Y0067869D01*
X0088117Y0068527D01*
X0086089Y0067540D01*
X0085814Y0067430D01*
X0085814Y0064634D01*
X0086089Y0063976D01*
X0086198Y0063812D01*
X0058196Y0120420D02*
X0056461Y0122155D01*
X0057329Y0122155D01*
X0057329Y0123022D01*
X0056461Y0123022D01*
X0056461Y0122155D01*
X0059883Y0122155D02*
X0063353Y0125624D01*
X0065039Y0125624D02*
X0068509Y0122155D01*
X0070196Y0123022D02*
X0070196Y0124757D01*
X0071063Y0125624D01*
X0072798Y0125624D01*
X0073665Y0124757D01*
X0073665Y0123022D01*
X0072798Y0122155D01*
X0071063Y0122155D01*
X0070196Y0123022D01*
X0068509Y0125624D02*
X0065039Y0122155D01*
X0063353Y0122155D02*
X0059883Y0125624D01*
X0063321Y0130555D02*
X0063321Y0133157D01*
X0064188Y0134024D01*
X0065923Y0134024D01*
X0066790Y0133157D01*
X0068493Y0134024D02*
X0070228Y0134024D01*
X0069360Y0134892D02*
X0069360Y0131422D01*
X0068493Y0130555D01*
X0066790Y0130555D02*
X0066790Y0135759D01*
X0071931Y0130555D02*
X0073665Y0130555D01*
X0072798Y0130555D02*
X0072798Y0134024D01*
X0073665Y0134024D01*
X0075352Y0134024D02*
X0075352Y0131422D01*
X0076220Y0130555D01*
X0077087Y0131422D01*
X0077954Y0130555D01*
X0078822Y0131422D01*
X0078822Y0134024D01*
X0072798Y0135759D02*
X0072798Y0136627D01*
X0078822Y0127359D02*
X0078822Y0122155D01*
X0076220Y0122155D01*
X0075352Y0123022D01*
X0075352Y0124757D01*
X0076220Y0125624D01*
X0078822Y0125624D01*
X0080509Y0125624D02*
X0083111Y0125624D01*
X0083978Y0124757D01*
X0083978Y0123022D01*
X0083111Y0122155D01*
X0080509Y0122155D01*
X0080509Y0127359D01*
X0085665Y0124757D02*
X0085665Y0122155D01*
X0085665Y0124757D02*
X0086532Y0125624D01*
X0089135Y0125624D01*
X0089135Y0122155D01*
X0090821Y0122155D02*
X0093424Y0122155D01*
X0094291Y0123022D01*
X0093424Y0123890D01*
X0090821Y0123890D01*
X0090821Y0124757D02*
X0090821Y0122155D01*
X0090821Y0124757D02*
X0091689Y0125624D01*
X0093424Y0125624D01*
X0095978Y0126492D02*
X0096845Y0127359D01*
X0098580Y0127359D01*
X0099447Y0126492D01*
X0099447Y0125624D01*
X0098580Y0124757D01*
X0096845Y0124757D01*
X0095978Y0123890D01*
X0095978Y0123022D01*
X0096845Y0122155D01*
X0098580Y0122155D01*
X0099447Y0123022D01*
X0101134Y0123022D02*
X0102002Y0122155D01*
X0103736Y0122155D01*
X0104604Y0123022D01*
X0104604Y0126492D01*
X0103736Y0127359D01*
X0102002Y0127359D01*
X0101134Y0126492D01*
X0101134Y0124757D01*
X0102002Y0123890D01*
X0102002Y0125624D01*
X0103736Y0125624D01*
X0103736Y0123890D01*
X0102002Y0123890D01*
X0101134Y0130555D02*
X0101134Y0135759D01*
X0102869Y0134024D01*
X0104604Y0135759D01*
X0104604Y0130555D01*
X0099447Y0131422D02*
X0098580Y0132290D01*
X0095978Y0132290D01*
X0095978Y0133157D02*
X0095978Y0130555D01*
X0098580Y0130555D01*
X0099447Y0131422D01*
X0098580Y0134024D02*
X0096845Y0134024D01*
X0095978Y0133157D01*
X0094291Y0133157D02*
X0093424Y0134024D01*
X0090821Y0134024D01*
X0090821Y0135759D02*
X0090821Y0130555D01*
X0093424Y0130555D01*
X0094291Y0131422D01*
X0094291Y0133157D01*
X0089135Y0133157D02*
X0089135Y0131422D01*
X0088267Y0130555D01*
X0086532Y0130555D01*
X0085665Y0132290D02*
X0089135Y0132290D01*
X0089135Y0133157D02*
X0088267Y0134024D01*
X0086532Y0134024D01*
X0085665Y0133157D01*
X0085665Y0132290D01*
X0056477Y0131422D02*
X0055610Y0130555D01*
X0053875Y0130555D01*
X0053008Y0131422D01*
X0053008Y0132290D01*
X0053875Y0133157D01*
X0055610Y0133157D01*
X0056477Y0134024D01*
X0056477Y0134892D01*
X0055610Y0135759D01*
X0053875Y0135759D01*
X0053008Y0134892D01*
X0051321Y0134024D02*
X0051321Y0131422D01*
X0050454Y0130555D01*
X0049586Y0131422D01*
X0048719Y0130555D01*
X0047851Y0131422D01*
X0047851Y0134024D01*
X0045297Y0134024D02*
X0043562Y0134024D01*
X0042695Y0133157D01*
X0042695Y0130555D01*
X0045297Y0130555D01*
X0046165Y0131422D01*
X0045297Y0132290D01*
X0042695Y0132290D01*
X0041008Y0133157D02*
X0041008Y0131422D01*
X0040141Y0130555D01*
X0037539Y0130555D01*
X0037539Y0129687D02*
X0037539Y0134024D01*
X0040141Y0134024D01*
X0041008Y0133157D01*
X0039273Y0128820D02*
X0038406Y0128820D01*
X0037539Y0129687D01*
X0035820Y0127359D02*
X0035820Y0122155D01*
X0034133Y0123022D02*
X0033266Y0122155D01*
X0031531Y0122155D01*
X0030663Y0123022D01*
X0030663Y0126492D02*
X0031531Y0127359D01*
X0033266Y0127359D01*
X0034133Y0126492D01*
X0034133Y0123022D01*
X0035820Y0124757D02*
X0039289Y0124757D01*
X0040976Y0124757D02*
X0040976Y0126492D01*
X0041844Y0127359D01*
X0044446Y0127359D01*
X0044446Y0122155D01*
X0044446Y0123890D02*
X0041844Y0123890D01*
X0040976Y0124757D01*
X0039289Y0122155D02*
X0039289Y0127359D01*
X0046133Y0126492D02*
X0046133Y0125624D01*
X0047000Y0124757D01*
X0049602Y0124757D01*
X0047000Y0124757D02*
X0046133Y0123890D01*
X0046133Y0123022D01*
X0047000Y0122155D01*
X0049602Y0122155D01*
X0049602Y0127359D01*
X0047000Y0127359D01*
X0046133Y0126492D01*
D13*
X0035953Y0118138D02*
X0011051Y0093236D01*
X0011051Y0047764D01*
X0035953Y0022862D01*
X0139909Y0022862D01*
X0139909Y0118138D01*
X0035953Y0118138D01*
D14*
X0060486Y0103504D02*
X0060486Y0041225D01*
X0081374Y0041225D02*
X0081374Y0103504D01*
D15*
X0101780Y0090500D03*
D16*
X0091622Y0100618D02*
X0091622Y0045500D01*
X0034929Y0045500D01*
X0034929Y0049437D01*
X0033906Y0047075D02*
X0033771Y0047077D01*
X0033636Y0047083D01*
X0033502Y0047092D01*
X0033368Y0047106D01*
X0033234Y0047123D01*
X0033100Y0047144D01*
X0032968Y0047169D01*
X0032836Y0047198D01*
X0032705Y0047230D01*
X0032575Y0047266D01*
X0032446Y0047306D01*
X0032319Y0047350D01*
X0032192Y0047397D01*
X0032067Y0047448D01*
X0031944Y0047502D01*
X0031822Y0047560D01*
X0031701Y0047621D01*
X0031583Y0047686D01*
X0031467Y0047754D01*
X0031352Y0047825D01*
X0031240Y0047899D01*
X0031129Y0047977D01*
X0031021Y0048058D01*
X0030916Y0048142D01*
X0030812Y0048229D01*
X0030712Y0048319D01*
X0030614Y0048411D01*
X0030518Y0048507D01*
X0030426Y0048605D01*
X0030336Y0048705D01*
X0030249Y0048809D01*
X0030165Y0048914D01*
X0030084Y0049022D01*
X0030006Y0049133D01*
X0029932Y0049245D01*
X0029861Y0049360D01*
X0029793Y0049476D01*
X0029728Y0049594D01*
X0029667Y0049715D01*
X0029609Y0049837D01*
X0029555Y0049960D01*
X0029504Y0050085D01*
X0029457Y0050212D01*
X0029413Y0050339D01*
X0029373Y0050468D01*
X0029337Y0050598D01*
X0029305Y0050729D01*
X0029276Y0050861D01*
X0029251Y0050993D01*
X0029230Y0051127D01*
X0029213Y0051261D01*
X0029199Y0051395D01*
X0029190Y0051529D01*
X0029184Y0051664D01*
X0029182Y0051799D01*
X0029181Y0051799D02*
X0029181Y0088020D01*
X0025637Y0088019D02*
X0025628Y0088154D01*
X0025623Y0088290D01*
X0025621Y0088425D01*
X0025623Y0088560D01*
X0025629Y0088696D01*
X0025639Y0088831D01*
X0025653Y0088965D01*
X0025671Y0089100D01*
X0025693Y0089233D01*
X0025718Y0089366D01*
X0025747Y0089499D01*
X0025780Y0089630D01*
X0025816Y0089760D01*
X0025857Y0089889D01*
X0025901Y0090018D01*
X0025948Y0090144D01*
X0026000Y0090270D01*
X0026054Y0090393D01*
X0026113Y0090516D01*
X0026175Y0090636D01*
X0026240Y0090755D01*
X0026308Y0090872D01*
X0026380Y0090986D01*
X0026455Y0091099D01*
X0026534Y0091209D01*
X0026615Y0091318D01*
X0026699Y0091423D01*
X0026787Y0091527D01*
X0026877Y0091628D01*
X0026970Y0091726D01*
X0027066Y0091821D01*
X0027165Y0091914D01*
X0027266Y0092004D01*
X0027370Y0092091D01*
X0027476Y0092175D01*
X0027585Y0092256D01*
X0027696Y0092333D01*
X0027809Y0092408D01*
X0027924Y0092479D01*
X0028041Y0092547D01*
X0028160Y0092612D01*
X0028281Y0092673D01*
X0028403Y0092731D01*
X0028528Y0092785D01*
X0028653Y0092835D01*
X0028780Y0092882D01*
X0028908Y0092926D01*
X0029038Y0092965D01*
X0029168Y0093001D01*
X0029300Y0093034D01*
X0029432Y0093062D01*
X0029565Y0093087D01*
X0029699Y0093107D01*
X0029834Y0093124D01*
X0029968Y0093138D01*
X0032173Y0096681D02*
X0032330Y0096679D01*
X0032487Y0096673D01*
X0032644Y0096663D01*
X0032800Y0096650D01*
X0032956Y0096632D01*
X0033112Y0096611D01*
X0033267Y0096585D01*
X0033421Y0096556D01*
X0033575Y0096523D01*
X0033727Y0096486D01*
X0033879Y0096446D01*
X0034030Y0096401D01*
X0034179Y0096353D01*
X0034327Y0096301D01*
X0034474Y0096246D01*
X0034620Y0096186D01*
X0034764Y0096124D01*
X0034906Y0096057D01*
X0035047Y0095987D01*
X0035186Y0095914D01*
X0035323Y0095837D01*
X0035458Y0095757D01*
X0035590Y0095673D01*
X0035721Y0095586D01*
X0035850Y0095496D01*
X0035976Y0095403D01*
X0036100Y0095307D01*
X0036222Y0095207D01*
X0036341Y0095105D01*
X0036457Y0094999D01*
X0036571Y0094891D01*
X0036682Y0094780D01*
X0036790Y0094666D01*
X0036896Y0094550D01*
X0036998Y0094431D01*
X0037098Y0094309D01*
X0037194Y0094185D01*
X0037287Y0094059D01*
X0037377Y0093930D01*
X0037464Y0093799D01*
X0037548Y0093667D01*
X0037628Y0093532D01*
X0037705Y0093395D01*
X0037778Y0093256D01*
X0037848Y0093115D01*
X0037915Y0092973D01*
X0037977Y0092829D01*
X0038037Y0092683D01*
X0038092Y0092536D01*
X0038144Y0092388D01*
X0038192Y0092239D01*
X0038237Y0092088D01*
X0038277Y0091936D01*
X0038314Y0091784D01*
X0038347Y0091630D01*
X0038376Y0091476D01*
X0038402Y0091321D01*
X0038423Y0091165D01*
X0038441Y0091009D01*
X0038454Y0090853D01*
X0038464Y0090696D01*
X0038470Y0090539D01*
X0038472Y0090382D01*
X0038472Y0052193D01*
X0038457Y0052084D01*
X0038437Y0051975D01*
X0038414Y0051866D01*
X0038387Y0051759D01*
X0038356Y0051652D01*
X0038322Y0051547D01*
X0038284Y0051443D01*
X0038242Y0051340D01*
X0038197Y0051239D01*
X0038148Y0051140D01*
X0038096Y0051042D01*
X0038040Y0050946D01*
X0037981Y0050853D01*
X0037919Y0050761D01*
X0037854Y0050671D01*
X0037785Y0050584D01*
X0037714Y0050499D01*
X0037640Y0050417D01*
X0037562Y0050338D01*
X0037483Y0050261D01*
X0037400Y0050187D01*
X0037315Y0050116D01*
X0037228Y0050048D01*
X0037138Y0049983D01*
X0037046Y0049921D01*
X0036952Y0049863D01*
X0036856Y0049808D01*
X0036758Y0049756D01*
X0036658Y0049707D01*
X0036557Y0049663D01*
X0036454Y0049621D01*
X0036350Y0049584D01*
X0036244Y0049550D01*
X0036138Y0049519D01*
X0036030Y0049493D01*
X0035922Y0049470D01*
X0035813Y0049451D01*
X0035703Y0049436D01*
X0035593Y0049424D01*
X0035482Y0049417D01*
X0035371Y0049413D01*
X0035261Y0049414D01*
X0035150Y0049418D01*
X0035039Y0049426D01*
X0034929Y0049438D01*
X0030362Y0047075D02*
X0030227Y0047077D01*
X0030092Y0047083D01*
X0029958Y0047092D01*
X0029824Y0047106D01*
X0029690Y0047123D01*
X0029556Y0047144D01*
X0029424Y0047169D01*
X0029292Y0047198D01*
X0029161Y0047230D01*
X0029031Y0047266D01*
X0028902Y0047306D01*
X0028775Y0047350D01*
X0028648Y0047397D01*
X0028523Y0047448D01*
X0028400Y0047502D01*
X0028278Y0047560D01*
X0028157Y0047621D01*
X0028039Y0047686D01*
X0027923Y0047754D01*
X0027808Y0047825D01*
X0027696Y0047899D01*
X0027585Y0047977D01*
X0027477Y0048058D01*
X0027372Y0048142D01*
X0027268Y0048229D01*
X0027168Y0048319D01*
X0027070Y0048411D01*
X0026974Y0048507D01*
X0026882Y0048605D01*
X0026792Y0048705D01*
X0026705Y0048809D01*
X0026621Y0048914D01*
X0026540Y0049022D01*
X0026462Y0049133D01*
X0026388Y0049245D01*
X0026317Y0049360D01*
X0026249Y0049476D01*
X0026184Y0049594D01*
X0026123Y0049715D01*
X0026065Y0049837D01*
X0026011Y0049960D01*
X0025960Y0050085D01*
X0025913Y0050212D01*
X0025869Y0050339D01*
X0025829Y0050468D01*
X0025793Y0050598D01*
X0025761Y0050729D01*
X0025732Y0050861D01*
X0025707Y0050993D01*
X0025686Y0051127D01*
X0025669Y0051261D01*
X0025655Y0051395D01*
X0025646Y0051529D01*
X0025640Y0051664D01*
X0025638Y0051799D01*
X0025638Y0088020D01*
X0029181Y0088019D02*
X0029172Y0088154D01*
X0029167Y0088290D01*
X0029165Y0088425D01*
X0029167Y0088560D01*
X0029173Y0088696D01*
X0029183Y0088831D01*
X0029197Y0088965D01*
X0029215Y0089100D01*
X0029237Y0089233D01*
X0029262Y0089366D01*
X0029291Y0089499D01*
X0029324Y0089630D01*
X0029360Y0089760D01*
X0029401Y0089889D01*
X0029445Y0090018D01*
X0029492Y0090144D01*
X0029544Y0090270D01*
X0029598Y0090393D01*
X0029657Y0090516D01*
X0029719Y0090636D01*
X0029784Y0090755D01*
X0029852Y0090872D01*
X0029924Y0090986D01*
X0029999Y0091099D01*
X0030078Y0091209D01*
X0030159Y0091318D01*
X0030243Y0091423D01*
X0030331Y0091527D01*
X0030421Y0091628D01*
X0030514Y0091726D01*
X0030610Y0091821D01*
X0030709Y0091914D01*
X0030810Y0092004D01*
X0030914Y0092091D01*
X0031020Y0092175D01*
X0031129Y0092256D01*
X0031240Y0092333D01*
X0031353Y0092408D01*
X0031468Y0092479D01*
X0031585Y0092547D01*
X0031704Y0092612D01*
X0031825Y0092673D01*
X0031947Y0092731D01*
X0032072Y0092785D01*
X0032197Y0092835D01*
X0032324Y0092882D01*
X0032452Y0092926D01*
X0032582Y0092965D01*
X0032712Y0093001D01*
X0032844Y0093034D01*
X0032976Y0093062D01*
X0033109Y0093087D01*
X0033243Y0093107D01*
X0033378Y0093124D01*
X0033512Y0093138D01*
X0032173Y0096681D02*
X0032173Y0100618D01*
X0091622Y0100618D01*
X0015008Y0093138D02*
X0014874Y0093124D01*
X0014739Y0093107D01*
X0014605Y0093087D01*
X0014472Y0093062D01*
X0014340Y0093034D01*
X0014208Y0093001D01*
X0014078Y0092965D01*
X0013948Y0092926D01*
X0013820Y0092882D01*
X0013693Y0092835D01*
X0013568Y0092785D01*
X0013443Y0092731D01*
X0013321Y0092673D01*
X0013200Y0092612D01*
X0013081Y0092547D01*
X0012964Y0092479D01*
X0012849Y0092408D01*
X0012736Y0092333D01*
X0012625Y0092256D01*
X0012516Y0092175D01*
X0012410Y0092091D01*
X0012306Y0092004D01*
X0012205Y0091914D01*
X0012106Y0091821D01*
X0012010Y0091726D01*
X0011917Y0091628D01*
X0011827Y0091527D01*
X0011739Y0091423D01*
X0011655Y0091318D01*
X0011574Y0091209D01*
X0011495Y0091099D01*
X0011420Y0090986D01*
X0011348Y0090872D01*
X0011280Y0090755D01*
X0011215Y0090636D01*
X0011153Y0090516D01*
X0011094Y0090393D01*
X0011040Y0090270D01*
X0010988Y0090144D01*
X0010941Y0090018D01*
X0010897Y0089889D01*
X0010856Y0089760D01*
X0010820Y0089630D01*
X0010787Y0089499D01*
X0010758Y0089366D01*
X0010733Y0089233D01*
X0010711Y0089100D01*
X0010693Y0088965D01*
X0010679Y0088831D01*
X0010669Y0088696D01*
X0010663Y0088560D01*
X0010661Y0088425D01*
X0010663Y0088290D01*
X0010668Y0088154D01*
X0010677Y0088019D01*
X0010677Y0088020D02*
X0010677Y0051799D01*
X0010678Y0051799D02*
X0010680Y0051664D01*
X0010686Y0051529D01*
X0010695Y0051395D01*
X0010709Y0051261D01*
X0010726Y0051127D01*
X0010747Y0050993D01*
X0010772Y0050861D01*
X0010801Y0050729D01*
X0010833Y0050598D01*
X0010869Y0050468D01*
X0010909Y0050339D01*
X0010953Y0050212D01*
X0011000Y0050085D01*
X0011051Y0049960D01*
X0011105Y0049837D01*
X0011163Y0049715D01*
X0011224Y0049594D01*
X0011289Y0049476D01*
X0011357Y0049360D01*
X0011428Y0049245D01*
X0011502Y0049133D01*
X0011580Y0049022D01*
X0011661Y0048914D01*
X0011745Y0048809D01*
X0011832Y0048705D01*
X0011922Y0048605D01*
X0012014Y0048507D01*
X0012110Y0048411D01*
X0012208Y0048319D01*
X0012308Y0048229D01*
X0012412Y0048142D01*
X0012517Y0048058D01*
X0012625Y0047977D01*
X0012736Y0047899D01*
X0012848Y0047825D01*
X0012963Y0047754D01*
X0013079Y0047686D01*
X0013197Y0047621D01*
X0013318Y0047560D01*
X0013440Y0047502D01*
X0013563Y0047448D01*
X0013688Y0047397D01*
X0013815Y0047350D01*
X0013942Y0047306D01*
X0014071Y0047266D01*
X0014201Y0047230D01*
X0014332Y0047198D01*
X0014464Y0047169D01*
X0014596Y0047144D01*
X0014730Y0047123D01*
X0014864Y0047106D01*
X0014998Y0047092D01*
X0015132Y0047083D01*
X0015267Y0047077D01*
X0015402Y0047075D01*
M02*
